<?xml version="1.0" encoding="utf-8"?><svg viewBox="0 0 640 512" xmlns="http://www.w3.org/2000/svg" xmlns:xlink="http://www.w3.org/1999/xlink"><style>:root>svg{display:none}:root>svg:target{display:block}</style><svg viewBox="0 0 320 512" id="0" xmlns="http://www.w3.org/2000/svg"><path d="M160 80c61.76 0 112 50.24 112 112v128c0 61.76-50.24 112-112 112S48 381.8 48 320V192c0-61.8 50.24-112 112-112zm0-47.99c-88.37 0-160 71.63-160 160v127.1c0 88.37 71.63 160 160 160s160-71.63 160-160V192c0-88.4-71.6-159.99-160-159.99z"/></svg><svg viewBox="0 0 256 512" id="1" xmlns="http://www.w3.org/2000/svg"><path d="M256 456c0 13.25-10.75 24-24 24H24c-13.25 0-24-10.7-24-24s10.75-24 24-24h80V98.95L36.58 140.4c-11.28 7-26.05 3.5-33.017-7.8-6.954-11.3-3.422-26.1 7.857-33.04l104-64c7.391-4.562 16.7-4.734 24.28-.516A24.017 24.017 0 01152 56v376h80c13.3 0 24 10.8 24 24z"/></svg><svg viewBox="0 0 320 512" id="2" xmlns="http://www.w3.org/2000/svg"><path d="M296 480H24c-9.922 0-18.81-6.109-22.39-15.36s-1.078-19.75 6.266-26.42l205.8-186.7c41.23-35.58 46-95.23 11.3-136.2-17.31-20.45-41.73-32.88-68.75-35.02-27.2-2.172-53.39 6.391-73.84 24L43.34 139c-9.906 8.812-25.12 7.891-33.88-2-8.812-9.906-7.906-25.08 2-33.88L50.8 68.15C81.32 41.87 120.1 29.13 160 32.43c39.88 3.141 75.97 21.55 101.6 51.83 51.08 60.31 43.84 151.5-16.12 203.2L86.19 432H296c13.25 0 24 10.75 24 24s-10.7 24-24 24z"/></svg><svg viewBox="0 0 320 512" id="3" xmlns="http://www.w3.org/2000/svg"><path d="M188.3 480H98.14c-44.03 0-82.98-28.06-96.91-69.84-4.188-12.58 2.594-26.17 15.17-30.36 12.61-4.234 26.17 2.609 30.36 15.17C54.16 417.1 74.8 432 98.14 432h90.17c46.19 0 83.69-37.5 83.69-83.7 0-46.16-37.55-83.7-83.69-83.7H88a24.015 24.015 0 01-22.27-15.03c-3.65-9.07-1.42-19.47 5.63-26.27L220.4 80H24C10.75 80 0 69.25 0 56s10.75-24 24-24h256c9.797 0 18.61 5.953 22.27 15.03a24.028 24.028 0 01-5.625 26.27L147.6 216.6h40.72C260.9 216.6 320 275.7 320 348.3S260.9 480 188.3 480z"/></svg><svg viewBox="0 0 384 512" id="4" xmlns="http://www.w3.org/2000/svg"><path d="M384 328c0 13.25-10.75 24-24 24l-39.1.001L320 456c0 13.25-10.75 24-24 24s-24-10.75-24-24V352H24a23.983 23.983 0 01-20.56-11.62 23.958 23.958 0 01-.64-23.61l144-272c6.2-11.69 20.8-16.15 32.4-9.97 11.7 6.188 16.17 20.72 9.969 32.44L63.86 304H272V152c0-13.2 10.8-24 24-24s24 10.8 24 24v152h40c13.3 0 24 10.8 24 24z"/></svg><svg viewBox="0 0 320 512" id="5" xmlns="http://www.w3.org/2000/svg"><path d="M187.7 480h-82c-47.47 0-89.47-30.27-104.5-75.31-4.203-12.58 2.594-26.17 15.17-30.36 12.56-4.219 26.17 2.609 30.36 15.17 8.52 25.4 32.21 42.5 58.97 42.5h81.95c46.55 0 84.35-37.8 84.35-84.3s-37.8-84.3-84.3-84.3H24a23.986 23.986 0 01-18.38-8.562A23.93 23.93 0 01.36 235.3l32-183.4C34.36 40.39 44.35 32 56 32h208c13.3 0 24 10.75 24 24s-10.7 24-24 24H76.17L52.55 215.4h135.1C260.6 215.4 320 274.7 320 347.7S260.6 480 187.7 480z"/></svg><svg viewBox="0 0 320 512" id="6" xmlns="http://www.w3.org/2000/svg"><path d="M0 320c0 88.22 71.78 160 160 160s160-71.78 160-160-71.8-160-160-160c-5.5 0-10.8 1.1-16.1 1.6l74.64-90.35c8.438-10.22 7-25.34-3.219-33.78C210.8 33.8 205.4 32 200 32c-6.906 0-13.75 2.969-18.5 8.719C37.81 214.7 0 244.4 0 320zm272 0c0 61.75-50.25 112-112 112S48 381.8 48 320s50.25-112 112-112 112 50.3 112 112z"/></svg><svg viewBox="0 0 320 512" id="7" xmlns="http://www.w3.org/2000/svg"><path d="M55.98 480a23.809 23.809 0 01-12.33-3.422c-11.38-6.812-15.06-21.56-8.234-32.92L253.6 80H24C10.75 80 0 69.25 0 56s10.75-24 24-24h272c8.641 0 16.62 4.656 20.89 12.17 4.25 7.531 4.141 16.77-.313 24.17l-240 400A24.072 24.072 0 0155.98 480z"/></svg><svg viewBox="0 0 320 512" id="8" xmlns="http://www.w3.org/2000/svg"><path d="M259.7 250.2c26.9-22.8 44.3-56.3 44.3-94.2 0-68.37-55.6-124-124-124h-40C71.63 32 16 87.63 16 156c0 37.88 17.43 71.42 44.28 94.18C24.33 271.9 0 311 0 356c0 68.4 55.63 124 124 124h72c68.4 0 124-55.6 124-124 0-45-24.3-84.1-60.3-105.8zM140 80h40c41.9 0 76 34.1 76 76s-34.1 76-76 76h-40c-41.91 0-76-34.1-76-76s34.09-76 76-76zm56 352h-72c-41.91 0-76-34.09-76-76s34.09-76 76-76h72c41.91 0 76 34.09 76 76s-34.1 76-76 76z"/></svg><svg viewBox="0 0 320 512" id="9" xmlns="http://www.w3.org/2000/svg"><path d="M320 192c0-88.22-71.78-160-160-160S0 103.78 0 192s71.78 160 160 160c5.525 0 10.75-1.082 16.14-1.631L101.5 440.7c-8.438 10.22-7 25.34 3.219 33.78A23.797 23.797 0 00120 480c6.906 0 13.75-2.969 18.5-8.719C282.2 297.3 320 267.6 320 192zm-272 0c0-61.75 50.25-112 112-112s112 50.25 112 112-50.2 112-112 112S48 253.8 48 192z"/></svg><svg viewBox="0 0 448 512" id="align-center" xmlns="http://www.w3.org/2000/svg"><path d="M119.1 88h208c14.2 0 24.9-10.75 24.9-24s-10.7-24-24-24H119.1C106.7 40 96 50.75 96 64s10.7 24 23.1 24zM424 424H23.1C10.75 424 0 434.7 0 448s10.75 24 23.1 24H424c13.25 0 24-10.75 24-23.1S437.3 424 424 424zm-96-80c13.3 0 24-10.7 24-24s-10.7-24-24-24H119.1c-12.4 0-23.1 10.7-23.1 24s10.7 24 23.1 24H328zm96-176H23.1C10.75 168 0 178.7 0 192s10.75 24 23.1 24H424c13.25 0 24-10.75 24-23.1S437.3 168 424 168z"/></svg><svg viewBox="0 0 448 512" id="align-justify" xmlns="http://www.w3.org/2000/svg"><path d="M424 296H23.1C10.75 296 0 306.7 0 320s10.75 24 23.1 24H424c13.25 0 24-10.75 24-23.1S437.3 296 424 296zm0 128H23.1C10.75 424 0 434.7 0 448s10.75 24 23.1 24H424c13.25 0 24-10.75 24-23.1S437.3 424 424 424zm0-256H23.1C10.75 168 0 178.7 0 192s10.75 24 23.1 24H424c13.25 0 24-10.75 24-23.1S437.3 168 424 168zm0-128H23.1C10.75 40 0 50.75 0 64s10.75 24 23.1 24H424c13.25 0 24-10.75 24-23.1S437.3 40 424 40z"/></svg><svg viewBox="0 0 448 512" id="align-left" xmlns="http://www.w3.org/2000/svg"><path d="M20.87 88h246.3C278.7 88 288 78.65 288 67.13v-6.26C288 49.35 278.7 40 267.1 40H20.87C9.346 40 0 49.35 0 60.87v6.26C0 78.65 9.346 88 20.87 88zm0 256h246.3c11.53 0 20.83-9.3 20.83-20.9v-6.2c0-11.6-9.3-20.9-20.9-20.9H20.87C9.346 296 0 305.3 0 316.9v6.25C0 334.7 9.346 344 20.87 344zM424 168H23.1C10.75 168 0 178.7 0 192s10.75 24 23.1 24H424c13.25 0 24-10.75 24-23.1S437.3 168 424 168zm0 256H23.1C10.75 424 0 434.7 0 448s10.75 24 23.1 24H424c13.25 0 24-10.75 24-23.1S437.3 424 424 424z"/></svg><svg viewBox="0 0 448 512" id="align-right" xmlns="http://www.w3.org/2000/svg"><path d="M424 424H23.1C10.75 424 0 434.7 0 448s10.75 24 23.1 24H424c13.25 0 24-10.75 24-23.1S437.3 424 424 424zm3.1-128H180.9c-11.6 0-20.9 9.3-20.9 20.9v6.25c0 11.55 9.3 20.85 20.9 20.85h246.3c11.5 0 20.8-9.3 20.8-20.9v-6.2c0-11.6-9.3-20.9-20.9-20.9zm0-256H180.9c-11.6 0-20.9 9.35-20.9 20.87v6.26C160 78.65 169.3 88 180.9 88h246.3c11.5 0 20.8-9.35 20.8-20.87v-6.26C448 49.35 438.7 40 427.1 40zM424 168H23.1C10.75 168 0 178.7 0 192s10.75 24 23.1 24H424c13.25 0 24-10.75 24-23.1S437.3 168 424 168z"/></svg><svg viewBox="0 0 384 512" id="angle-down" xmlns="http://www.w3.org/2000/svg"><path d="M360.5 217.5l-152 143.1c-4.6 5.2-10.6 7.4-16.5 7.4s-11.88-2.188-16.5-6.562L23.5 217.5c-9.63-9.2-10.03-24.4-.94-34 9.13-9.7 24.38-10 33.94-.9L192 310.9l135.5-128.4c9.562-9.094 24.75-8.75 33.94.937 9.06 9.663 8.66 24.863-.94 34.063z"/></svg><svg viewBox="0 0 256 512" id="angle-left" xmlns="http://www.w3.org/2000/svg"><path d="M166.5 424.5l-143.1-152a23.94 23.94 0 01-6.562-16.5 23.94 23.94 0 016.562-16.5l143.1-152c9.125-9.625 24.31-10.03 33.93-.938 9.688 9.126 10.03 24.38.938 33.94l-128.4 135.5 128.4 135.5c9.094 9.562 8.75 24.75-.938 33.94-9.53 9.058-24.73 8.658-33.93-.942z"/></svg><svg viewBox="0 0 256 512" id="angle-right" xmlns="http://www.w3.org/2000/svg"><path d="M89.45 87.5l143.1 152a23.94 23.94 0 016.562 16.5 23.96 23.96 0 01-6.562 16.5l-143.1 152c-9.12 9.6-24.31 10-33.93.9-9.688-9.125-10.03-24.38-.938-33.94l128.4-135.5-128.4-135.5c-9.092-9.56-8.752-24.71.938-33.9 9.62-9.09 24.81-8.69 33.93.94z"/></svg><svg viewBox="0 0 384 512" id="angle-up" xmlns="http://www.w3.org/2000/svg"><path d="M23.5 294.5l152-143.1c4.6-5.2 10.6-7.4 16.5-7.4s11.88 2.188 16.5 6.562l152 143.1c9.625 9.125 10.03 24.31.938 33.93-9.125 9.688-24.38 10.03-33.94.938l-135.5-128.4-135.5 128.4c-9.562 9.094-24.75 8.75-33.94-.938C13.47 318.9 13.87 303.7 23.5 294.5z"/></svg><svg viewBox="0 0 384 512" id="angles-down" xmlns="http://www.w3.org/2000/svg"><path d="M328 270.1L192 391.8 55.1 270.1a23.88 23.88 0 00-16-6.125c-6.594 0-13.16 2.687-17.88 7.1-7.94 10.825-7.1 26.025 2.77 34.825l152 135.1a23.916 23.916 0 0032 0l152-135.1c9.875-8.812 10.72-23.1 1.875-33.87C353.1 262.1 337.8 261.3 328 270.1zm-152.9-20.2a23.916 23.916 0 0032 0l152-135.1c9.875-8.812 10.72-23.1 1.875-33.87-8.813-9.906-24.03-10.72-33.88-1.875L192 199.8 55.1 78.13a23.88 23.88 0 00-16-6.125c-6.594 0-13.16 2.687-17.88 7.1-7.94 10.775-7.1 25.995 2.77 34.795l151.11 136z"/></svg><svg viewBox="0 0 448 512" id="angles-left" xmlns="http://www.w3.org/2000/svg"><path d="M213.9 388L92.23 252l121.6-136a23.88 23.88 0 006.125-16c0-6.594-2.687-13.16-7.1-17.88-10.755-8.84-25.955-8-34.755 1.87L42.14 235.1a23.916 23.916 0 000 32l135.1 152c8.812 9.875 23.1 10.72 33.87 1.875C221.9 413.1 222.7 397.8 213.9 388zm20.2-152.9a23.916 23.916 0 000 32l135.1 152c8.812 9.875 23.1 10.72 33.87 1.875 9.906-8.813 10.72-24.03 1.875-33.88L284.2 252l121.6-136a23.88 23.88 0 006.125-16c0-6.594-2.687-13.16-7.1-17.88-9.874-8.844-25.06-8-33.87 1.875L234.1 235.1z"/></svg><svg viewBox="0 0 448 512" id="angles-right" xmlns="http://www.w3.org/2000/svg"><path d="M238.1 115.1L359.8 252 238.2 388a23.88 23.88 0 00-6.125 16c0 6.594 2.687 13.16 7.1 17.88 9.874 8.844 25.06 8 33.87-1.875l135.1-152a23.916 23.916 0 000-32l-135.1-152c-8.812-9.875-23.1-10.72-33.87-1.875-9.075 8.8-9.875 24.07-1.075 32.97zM217.9 268a23.916 23.916 0 000-32L81.88 83.99c-8.81-9.87-24-10.71-33.88-1.87-9.9 8.81-10.71 24.08-1.87 32.98L167.8 252 46.2 388a23.88 23.88 0 00-6.125 16c0 6.594 2.687 13.16 7.1 17.88 9.874 8.844 25.06 8 33.87-1.875L217.9 268z"/></svg><svg viewBox="0 0 384 512" id="angles-up" xmlns="http://www.w3.org/2000/svg"><path d="M55.1 241.9L192 120.2l136 121.6a23.88 23.88 0 0016 6.125c6.594 0 13.16-2.687 17.88-7.1 8.844-9.874 8-25.06-1.875-33.87L208 70.14a23.916 23.916 0 00-32 0L23.99 206.1c-9.87 8.8-10.71 24-1.87 33.9 8.81 9.9 24.03 10.7 32.98 1.9zM208 262.1a23.916 23.916 0 00-32 0L24 397.2c-9.875 8.812-10.72 23.1-1.875 33.87 8.813 9.906 24.03 10.72 33.88 1.875L192 312.2l136 121.6a23.88 23.88 0 0016 6.125c6.594 0 13.16-2.687 17.88-7.1 8.844-9.874 8-25.06-1.875-33.87L208 262.1z"/></svg><svg viewBox="0 0 384 512" id="arrow-down" xmlns="http://www.w3.org/2000/svg"><path d="M377.4 296.6l-168 176c-4.6 4.7-10.8 7.4-17.4 7.4s-12.84-2.688-17.38-7.438l-168-176C-2.5 286.1-2.156 271.8 7.438 262.6c9.5-9.156 24.75-8.812 33.94.813L168 396.1V56.02c0-13.25 10.75-24.01 23.1-24.01S216 42.77 216 56.02v340.1l126.6-132.7c9.156-9.625 24.41-9.969 33.94-.813 9.66 9.193 9.96 23.493.86 33.993z"/></svg><svg viewBox="0 0 448 512" id="arrow-down-arrow-up" xmlns="http://www.w3.org/2000/svg"><path d="M206.4 335.1L152 394.9V56.02C152 42.76 141.3 32 128 32s-24 10.76-24 24.02v338.9l-54.37-58.95c-4.719-5.125-11.16-7.719-17.62-7.719-5.812 0-11.66 2.094-16.28 6.375-9.75 8.977-10.34 24.18-1.344 33.94l95.1 104.1c9.062 9.82 26.19 9.82 35.25 0l95.1-104.1c9-9.758 8.406-24.96-1.344-33.94-7.992-9.126-23.192-8.426-32.092.474zm227.2-191.7L338.5 39.3c-9.062-9.82-26.19-9.82-35.25 0L206.4 143.4c-9 9.758-8.406 24.96 1.344 33.94a23.878 23.878 0 0016.28 6.375c6.469 0 12.91-2.594 17.62-7.719L296 117.1V456c0 13.2 10.8 24 24 24s24-10.76 24-24.02V117.1l54.37 58.95c8.938 9.758 24.12 10.41 33.9 1.344C442 168.4 442.6 153.2 433.6 143.4z"/></svg><svg viewBox="0 0 320 512" id="arrow-down-long" xmlns="http://www.w3.org/2000/svg"><path d="M7.031 335c4.689-4.7 10.809-7 16.969-7s12.28 2.344 16.97 7.031L136 430.1V24c0-13.25 10.8-24 24-24s24 10.75 24 24v406.1l95.03-95.03c9.375-9.375 24.56-9.375 33.94 0s9.375 24.56 0 33.94l-136 136c-9.375 9.375-24.56 9.375-33.94 0l-136-136c-9.374-9.41-9.374-24.61.001-34.01z"/></svg><svg viewBox="0 0 448 512" id="arrow-left" xmlns="http://www.w3.org/2000/svg"><path d="M447.1 256c0 13.25-10.76 24.01-24.01 24.01H83.9l132.7 126.6c9.625 9.156 9.969 24.41.812 33.94-9.156 9.594-24.34 9.938-33.94.813l-176-168C2.695 268.9.008 262.6.008 256s2.687-12.8 7.437-17.4l176-168c9.555-9.09 24.755-8.75 33.955.85 9.156 9.5 8.812 24.75-.813 33.94l-132.7 126.6h340.1C437.2 232 447.1 242.8 447.1 256z"/></svg><svg viewBox="0 0 512 512" id="arrow-left-long" xmlns="http://www.w3.org/2000/svg"><path d="M176.1 103c5.6 4.7 7.9 10.8 7.9 17s-2.3 12.3-7.9 16.1L81.94 232H488c13.3 0 24 10.8 24 24s-10.75 24-24 24H81.94l95.03 95.03c9.375 9.375 9.375 24.56 0 33.94s-24.56 9.375-33.94 0l-136-136c-9.375-9.375-9.375-24.56 0-33.94l136-136c9.37-9.37 24.57-9.37 33.07-.03z"/></svg><svg viewBox="0 0 448 512" id="arrow-right" xmlns="http://www.w3.org/2000/svg"><path d="M264.6 70.63l176 168c4.75 4.531 7.438 10.81 7.438 17.38s-2.688 12.84-7.438 17.38l-176 168c-9.594 9.125-24.78 8.781-33.94-.813-9.156-9.5-8.812-24.75.813-33.94l132.7-126.6H24.01c-13.25 0-24.01-10.76-24.01-24.01s10.76-23.99 24.01-23.99h340.1l-132.7-126.6c-9.61-9.207-9.91-24.457-.81-33.987 9.2-9.6 23.5-9.94 34-.82z"/></svg><svg viewBox="0 0 512 512" id="arrow-right-long" xmlns="http://www.w3.org/2000/svg"><path d="M335 408.1c-4.7-3.8-7-9.9-7-16.1s2.344-12.28 7.031-16.97L430.1 280H24c-13.25 0-24-10.8-24-24.9C0 242.7 10.75 232 24 232h406.1l-95.03-95.03c-9.375-9.375-9.375-24.56 0-33.94s24.56-9.375 33.94 0l136 136c9.375 9.375 9.375 24.56 0 33.94l-136 136c-9.41 9.33-24.61 9.33-34.01-.87z"/></svg><svg viewBox="0 0 384 512" id="arrow-up" xmlns="http://www.w3.org/2000/svg"><path d="M6.625 215.5l168-176C179.2 34.7 185.4 32.02 192 32.02s12.84 2.688 17.38 7.438l168 176c9.125 9.594 8.781 24.78-.813 33.94-9.5 9.156-24.75 8.812-33.94-.813L216 115.9V456c0 13.25-10.75 23.1-23.1 23.1S168 469.3 168 456V115.9L41.4 248.6c-9.18 9.6-24.43 9.9-33.962.8-9.594-9.2-9.938-24.4-.813-33.9z"/></svg><svg viewBox="0 0 448 512" id="arrow-up-arrow-down" xmlns="http://www.w3.org/2000/svg"><path d="M240.3 177.4c9.75-8.977 10.34-24.18 1.344-33.94L145.6 39.37c-9.062-9.82-26.19-9.82-35.25 0L14.38 143.4c-9 9.758-8.406 24.96 1.344 33.94C20.35 181.7 26.19 183.8 32 183.8c6.469 0 12.91-2.594 17.62-7.719L104 117.1V456c0 13.2 10.8 24 24 24s24-10.76 24-24.02V117.1l54.37 58.95c8.93 9.75 24.13 10.45 33.93 1.35zm192 157.2c-9.779-9.07-24.97-8.414-33.9 1.344L344 394.9V56.02C344 42.76 333.3 32 320 32s-24 10.76-24 24.02v338.9l-54.37-58.95c-4.719-5.125-11.16-7.719-17.62-7.719-5.812 0-11.66 2.094-16.28 6.375-9.75 8.977-10.34 24.18-1.344 33.94l95.1 104.1c9.062 9.82 26.19 9.82 35.25 0l95.1-104.1C442.6 358.8 442 343.6 432.3 334.6z"/></svg><svg viewBox="0 0 320 512" id="arrow-up-long" xmlns="http://www.w3.org/2000/svg"><path d="M312.1 176.1c-3.8 5.6-9.9 7.9-16.1 7.9s-12.28-2.344-16.97-7.031L184 81.94V488c0 13.25-10.75 24-24 24s-24-10.75-24-24V81.94L40.97 176.1c-9.375 9.375-24.56 9.375-33.94 0s-9.375-24.56 0-33.94l136-136c9.375-9.375 24.56-9.375 33.94 0l136 136c9.33 10.24 9.33 25.44-.87 33.94z"/></svg><svg viewBox="0 0 512 512" id="badge" xmlns="http://www.w3.org/2000/svg"><path d="M256 512c-36.25 0-68.25-18.62-86.75-46.75-33 6.875-68.63-2.5-94.25-28.25-25.62-25.62-35.12-61.38-28.25-94.25C18.75 324.2 0 292.2 0 256s18.62-68.25 46.75-86.75C39.88 136.5 49.25 100.6 75 75c25.62-25.62 61.38-35.12 94.25-28.25C187.8 18.75 219.8 0 256 0s68.25 18.75 86.75 46.75C375.5 39.88 411.4 49.25 437 75c25.62 25.62 35.13 61.38 28.25 94.25C493.3 187.6 512 219.5 512 256c0 36.25-18.62 68.25-46.75 86.75 6.875 32.75-2.5 68.62-28.25 94.25-25.62 25.62-61.25 35.13-94.25 28.25C324.2 493.2 292.4 512 256 512zm-61.2-108.2c6.4 17.4 16 60.2 61.2 60.2 43.88 0 53.5-39.63 61.25-60.25 30.5 13.87 57.75 27.37 85.75-.625 30.1-31 9.75-65.88.75-85.88 17.37-6.5 60.12-15.87 60.12-61.12 0-43.88-39.63-53.5-60.12-61.25C411.4 178 435 141.1 403 109.1c-31-31-65.88-9.875-85.75-.75C310.8 90.75 301.2 48 256 48c-43.88 0-53.5 39.62-61.25 60.25-16.85-7.75-53.75-31.37-85.75.65-31.9 31-9.75 65.9-.8 85.9-17.45 6.4-60.2 16-60.2 61.2 0 43.88 39.62 53.5 60.25 61.25-7.75 16.85-31.37 53.75.65 85.75 31 31 64.9 10.4 85.9.8z"/></svg><svg viewBox="0 0 576 512" id="badge-check" xmlns="http://www.w3.org/2000/svg"><path d="M543.8 256c0-36.5-18.86-68.38-46.86-86.75 6.875-32.88-2.517-68.63-28.14-94.25-25.62-25.75-61.61-35.13-94.36-28.25C355.1 18.75 324.1 0 287.8 0s-68.3 18.75-87.7 46.75c-32-6.87-67.6 2.63-93.3 28.25-25.71 25.6-35.19 61.5-28.32 94.3-28.12 18.5-46.64 50.5-46.64 86.7s18.64 68.25 46.64 86.75C71.61 375.6 81.21 411.4 106.8 437c25.62 25.75 61.14 35.13 94.14 28.25C219.5 493.4 251.6 512 287.8 512c36.38 0 68.14-18.75 86.64-46.75 33 6.875 68.73-2.625 94.36-28.25 25.75-25.62 35.02-61.5 28.14-94.25C525.1 324.3 543.8 292.3 543.8 256zm-108.3 61.3c9 20 30.25 54.88-.75 85.88-28 28-55.25 14.5-85.75.625C341.2 424.4 331.6 464 287.7 464c-45.25 0-54.75-42.75-61.25-60.25C205.5 413.4 171.6 434 140.6 403c-32-32-8.375-68.88-.625-85.75C119.4 309.5 79.73 299.9 79.73 256c0-45.25 42.75-54.75 60.25-61.25-9-20-30.25-54.88.75-85.88 32-32 68.88-8.375 85.75-.625C234.2 87.63 243.9 48 287.7 48c45.25 0 54.75 42.75 61.25 60.38 19.88-9.125 54.75-30.25 85.75.75 32 32 8.375 68.88.75 85.75 20.5 7.75 60.13 17.38 60.13 61.25.02 45.27-42.68 54.67-60.08 61.17zM384.1 183c9.375 9.375 9.375 24.56 0 33.94l-112 112c-3.8 4.76-10 7.06-16.1 7.06a24 24 0 01-16.97-7.031l-48-48c-9.375-9.375-9.375-24.56 0-33.94s24.56-9.375 33.94 0L256 278.1l95.03-95.03c9.37-9.37 24.57-9.37 33.07-.07z"/></svg><svg viewBox="0 0 576 512" id="badge-percent" xmlns="http://www.w3.org/2000/svg"><path d="M223.8 224c17.62 0 31.1-14.38 31.1-32s-13.5-32-31.1-32-32 14.38-32 32 14.4 32 32 32zm320 32c0-36.5-18.86-68.38-46.86-86.75 6.875-32.88-2.517-68.63-28.14-94.25-25.62-25.75-61.61-35.13-94.36-28.25C355.1 18.75 324.1 0 287.8 0s-68.3 18.75-87.7 46.75c-32-6.87-67.6 2.63-93.3 28.25-25.71 25.6-35.19 61.5-28.32 94.3-28.12 18.5-46.64 50.5-46.64 86.7s18.64 68.25 46.64 86.75C71.61 375.6 81.21 411.4 106.8 437c25.62 25.75 61.14 35.13 94.14 28.25C219.5 493.4 251.6 512 287.8 512c36.38 0 68.14-18.75 86.64-46.75 33 6.875 68.73-2.625 94.36-28.25 25.75-25.62 35.02-61.5 28.14-94.25C525.1 324.3 543.8 292.3 543.8 256zm-108.3 61.3c9 20 30.25 54.88-.75 85.88-28 28-55.25 14.5-85.75.625C341.2 424.4 331.6 464 287.7 464c-45.25 0-54.75-42.75-61.25-60.25C205.5 413.4 171.6 434 140.6 403c-32-32-8.375-68.88-.625-85.75C119.4 309.5 79.73 299.9 79.73 256c0-45.25 42.75-54.75 60.25-61.25-9-20-30.25-54.88.75-85.88 32-32 68.88-8.375 85.75-.625C234.2 87.63 243.9 48 287.7 48c45.25 0 54.75 42.75 61.25 60.38 19.88-9.125 54.75-30.25 85.75.75 32 32 8.375 68.88.75 85.75 20.5 7.75 60.13 17.38 60.13 61.25.02 45.27-42.68 54.67-60.08 61.17zM351.8 288c-17.62 0-32 14.38-32 32s14.38 32 32 32 32-14.38 32-32-14.4-32-32-32zm16.3-113c-9.375-9.375-24.56-9.375-33.94 0l-128 128c-9.375 9.375-9.375 24.56 0 33.94C211.7 341.7 217.8 344 224 344s12.28-2.344 16.97-7.031l128-128c9.33-9.369 9.33-24.569-.87-33.969z"/></svg><svg viewBox="0 0 448 512" id="bag-shopping" xmlns="http://www.w3.org/2000/svg"><path d="M416 160h-72v-40C344 53.83 290.2 0 224 0S104 53.83 104 120v40H32c-17.67 0-32 14.3-32 32v240c0 44.2 35.82 80 80 80h288c44.18 0 80-35.82 80-80V192c0-17.7-14.3-32-32-32zm-264-40c0-39.7 32.3-72 72-72s72 32.3 72 72v40H152v-40zm248 312c0 17.64-14.36 32-32 32H80c-17.64 0-32-14.36-32-32V208h56v56c0 13.3 10.8 24 24 24s24-10.75 24-24v-56h144v56c0 13.3 10.8 24 24 24s24-10.75 24-24v-56h56v224z"/></svg><svg viewBox="0 0 512 512" id="ban" xmlns="http://www.w3.org/2000/svg"><path d="M256 0C114.6 0 0 114.6 0 256s114.6 256 256 256 256-114.6 256-256S397.4 0 256 0zM48 256c0-48.71 16.95-93.47 45.11-128.1l291.9 291.9C349.5 447 304.7 464 256 464c-114.7 0-208-93.3-208-208zm370.9 128.1L127 93.11C162.5 64.95 207.3 48 256 48c114.7 0 208 93.31 208 208 0 48.7-17 93.5-45.1 128.1z"/></svg><svg viewBox="0 0 448 512" id="bars" xmlns="http://www.w3.org/2000/svg"><path d="M424 392H23.1C10.8 392 0 402.8 0 415.1 0 429.2 10.8 440 23.1 440H424c13.2 0 24-10.8 24-23.1 0-14.1-10.8-24.9-24-24.9zm0-320H23.1C10.8 72 0 82.8 0 95.1S10.8 120 23.1 120H424c13.2 0 24-10.8 24-23.1S437.2 72 424 72zm0 160H23.1C10.8 232 0 242.8 0 256s10.8 24 23.1 24H424c13.2 0 24-10.8 24-24s-10.8-24-24-24z"/></svg><svg viewBox="0 0 448 512" id="bars-filter" xmlns="http://www.w3.org/2000/svg"><path d="M264 392h-80.9c-12.3 0-23.1 10.8-23.1 23.1 0 14.1 10.8 24.9 23.1 24.9h80c14.1 0 24.9-10.8 24.9-24s-10.8-24-24-24zM424 72H23.1C10.8 72 0 82.8 0 95.1S10.8 120 23.1 120H424c13.2 0 24-10.8 24-23.1S437.2 72 424 72zm-64 160H87.1C74.8 232 64 242.8 64 255.1c0 14.1 10.8 24.9 23.1 24.9h272c14.1 0 24.9-10.8 24.9-24s-10.8-24-24-24z"/></svg><svg viewBox="0 0 448 512" id="bars-sort" xmlns="http://www.w3.org/2000/svg"><path d="M168 392H23.1C10.8 392 0 402.8 0 415.1 0 429.2 10.8 440 23.1 440H168c13.2 0 24-10.8 24-24s-10.8-24-24-24zM424 72H23.1C10.8 72 0 82.8 0 95.1S10.8 120 23.1 120H424c13.2 0 24-10.8 24-23.1S437.2 72 424 72zM296 232H23.1C10.8 232 0 242.8 0 255.1 0 269.2 10.8 280 23.1 280h272c14.1 0 24.9-10.8 24.9-24s-10.8-24-24-24z"/></svg><svg viewBox="0 0 576 512" id="basket-shopping" xmlns="http://www.w3.org/2000/svg"><path d="M552 192l-136.5-.005-56.65-175.4c-4.062-12.59-17.58-19.53-30.22-15.47-12.61 4.078-19.53 17.59-15.47 30.22l51.81 160.6H211L262.8 31.38c4.062-12.62-2.859-26.14-15.47-30.22-12.53-4.045-26.13 2.876-30.13 15.47L160.5 191.1 24 192c-13.25 0-24 10.75-24 23.1 0 13.25 10.75 23.1 24 23.1h18.85l45.6 214.9C95.47 488 125.1 512 158.9 512h258.2c33.8 0 63.42-23.1 70.44-57.06l45.6-214.9H552c13.25 0 24-10.75 24-23.1 0-14.14-10.7-24.94-24-24.94zM440.6 444.1c-2.328 11.03-12.2 19.03-23.47 19.03H158.9c-11.27 0-21.14-7.1-23.47-19.03L91.94 240h53.16l-7.943 24.62C133.1 277.3 140 290.8 152.6 294.8c2.5.8 5 1.2 7.4 1.2 10.14 0 19.56-6.469 22.84-16.62l12.7-39.37h184.9l12.7 39.37C396.4 289.5 405.9 296 416 296c2.438 0 4.922-.375 7.375-1.156 12.61-4.078 19.53-17.59 15.47-30.22l-7.943-24.62h53.16L440.6 444.1zM224 319.1v87.1c0 8.844-7.156 15.1-16 15.1s-16-4.5-16-14.2v-88c0-8.844 7.156-15.1 16-15.1s16 7.2 16 15.1zm80 0v87.1c0 8.844-7.156 15.1-16 15.1s-16-7.156-16-15.1v-87.1c0-8.844 7.156-15.1 16-15.1s16 7.2 16 15.1zm80 0v87.1c0 8.844-7.156 15.1-16 15.1s-16-4.5-16-14.2v-88c0-8.844 7.156-15.1 16-15.1s16 7.2 16 15.1z"/></svg><svg viewBox="0 0 448 512" id="bell" xmlns="http://www.w3.org/2000/svg"><path d="M439.4 362.3c-19.3-20.8-55.5-52.1-55.5-154.3 0-77.75-54.38-139.9-127.9-155.1V32c0-17.62-14.38-32-32-32s-32 14.38-32 32v20.88C118.5 68.12 64.13 130.2 64.13 208c0 102.2-36.25 133.5-55.5 154.3C2.625 368.8 0 376.5 0 384c.125 16.38 13 32 32.13 32h383.8c19.12 0 32-15.62 32.13-32-.06-7.5-2.66-15.2-8.66-21.7zM67.5 368c21.25-28 44.5-74.4 44.5-159.4v-.6c0-61.9 50.1-112 112-112s112 50.12 112 112v.625C336 293.6 359.2 340 380.5 368h-313zm155.6 144c36.3 0 64.9-28.6 64.9-64H160c0 35.4 28.6 64 63.1 64z"/></svg><svg viewBox="0 0 640 512" id="bell-slash" xmlns="http://www.w3.org/2000/svg"><path d="M630.8 469.1l-90.65-71.05c2.205-4.418 3.805-9.09 3.842-14.06 0-7.5-2.625-15.25-8.625-21.75-19.25-20.75-55.5-51.1-55.5-154.2 0-77.75-54.37-139.9-127.9-155.1V32c0-17.62-14.38-32-32-32s-31.1 14.38-31.1 32v20.88c-42.7 8.859-78.5 33.78-101.2 68.22L38.81 5.117C28.34-3.054 13.32-1.247 5.115 9.19c-8.172 10.44-6.349 25.53 4.073 33.7L601.2 506.9c4.4 3.4 9.6 5.1 13.9 5.1 7.125 0 14.17-3.159 18.9-9.19 9.1-10.41 7.2-25.51-3.2-33.71zM224.7 150.8C244.1 118.1 279.2 96 320 96c61.88 0 112 50.13 112 112v.625c0 55.46 9.949 94.28 22.73 122.5L224.7 150.8zM319.1 512c35.38 0 64-28.62 64-63.1H256c0 34.5 28.6 63.1 63.1 63.1zM163.5 368c16.79-22.12 34.64-56.07 41.47-111.1l-45.47-35.6c-3.148 91.16-36.56 121.2-54.9 140.1-6 6.5-8.625 14.25-8.625 21.75.125 16.38 12.1 31.1 32.12 31.1L407.1 416l-61.24-48H163.5z"/></svg><svg viewBox="0 0 384 512" id="bookmark" xmlns="http://www.w3.org/2000/svg"><path d="M336 0H48C21.49 0 0 21.49 0 48v431.9c0 24.7 26.79 40.08 48.12 27.64L192 423.6l143.9 83.93c21.3 11.57 48.1-2.93 48.1-27.63V48c0-26.51-21.5-48-48-48zm0 452l-144-84-144 84V54c0-3.37 2.63-6 5.1-6h276c4.3 0 6.9 2.63 6.9 6v398z"/></svg><svg viewBox="0 0 640 512" id="bookmark-slash" xmlns="http://www.w3.org/2000/svg"><path d="M630.8 469.1l-118.8-94V48c0-26.51-21.5-48-48-48H176c-26.5 0-48 21.49-48 48v27.01L38.81 5.111C28.35-3.061 13.32-1.249 5.121 9.189-3.051 19.63-1.233 34.72 9.189 42.89L601.2 506.9c4.4 3.4 9.6 5.1 13.9 5.1 7.125 0 14.16-3.161 18.89-9.193 9.11-10.407 7.21-25.507-3.19-33.707zM464 338.4L176 112.7V54c0-3.37 2.6-6 5.1-6h276c4.3 0 6.9 2.63 6.9 6v284.4zM320 368l-144 84V234.2l-48-37.6V480c0 24.7 26.79 40.08 48.12 27.64L320 423.6l143.9 83.93c16.62 9.695 36.39 2.383 44.38-12.96l-83.71-65.6L320 368z"/></svg><svg viewBox="0 0 448 512" id="calendar" xmlns="http://www.w3.org/2000/svg"><path d="M384 64h-40V24c0-13.25-10.75-24-23.1-24S296 10.75 296 24v40H152V24c0-13.25-10.7-24-24-24s-24 10.75-24 24v40H64C28.65 64 0 92.65 0 128v320c0 35.35 28.65 64 64 64h320c35.35 0 64-28.65 64-64V128c0-35.35-28.7-64-64-64zm0 400H64c-8.822 0-16-7.176-16-16V192h352v256c0 8.8-7.2 16-16 16z"/></svg><svg viewBox="0 0 448 512" id="calendar-check" xmlns="http://www.w3.org/2000/svg"><path d="M183 408.1c4.5 4.5 10.62 7.031 16.97 7.031.313 0 .625 0 .906-.031a23.989 23.989 0 0017.31-8.344l96-112c8.625-10.06 7.47-25.22-2.594-33.84-10.03-8.594-25.19-7.47-33.84 2.594l-79.13 92.34-29.69-29.69c-9.375-9.375-24.56-9.375-33.94 0s-9.375 24.56 0 33.94l48.008 48zM384 64h-40V24c0-13.25-10.7-24-24-24s-24 10.75-24 24v40H152V24c0-13.25-10.7-24-24-24s-24 10.75-24 24v40H64C28.65 64 0 92.65 0 128v320c0 35.35 28.65 64 64 64h320c35.35 0 64-28.65 64-64V128c0-35.35-28.7-64-64-64zm16 384c0 8.824-7.178 16-16 16H64c-8.822 0-16-7.176-16-16V192h352v256z"/></svg><svg viewBox="0 0 448 512" id="calendar-days" xmlns="http://www.w3.org/2000/svg"><path d="M384 64h-40V24c0-13.25-10.75-24-23.1-24S296 10.75 296 24v40H152V24c0-13.25-10.7-24-24-24s-24 10.75-24 24v40H64C28.65 64 0 92.65 0 128v320c0 35.35 28.65 64 64 64h320c35.35 0 64-28.65 64-64V128c0-35.35-28.7-64-64-64zm16 128v104H248V192h152zm-200 0v104H48V192h152zM48 448V344h152v120H64c-8.82 0-16-7.2-16-16zm336 16H248V344h152v104c0 8.8-7.2 16-16 16z"/></svg><svg viewBox="0 0 448 512" id="calendar-lines" xmlns="http://www.w3.org/2000/svg"><path d="M384 64h-40V24c0-13.25-10.7-24-24-24s-24 10.75-24 24v40H152V24c0-13.25-10.7-24-24-24s-24 10.75-24 24v40H64C28.65 64 0 92.65 0 128v320c0 35.35 28.65 64 64 64h320c35.35 0 64-28.65 64-64V128c0-35.35-28.7-64-64-64zm16 384c0 8.824-7.178 16-16 16H64c-8.822 0-16-7.176-16-16V192h352v256zM120 304h208c13.3 0 24-10.7 24-24s-10.7-24-24-24H120c-13.2 0-24 10.8-24 24s10.8 24 24 24zm0 96h112c13.25 0 24-10.75 24-24s-10.7-24-24-24H120c-13.2 0-24 10.8-24 24s10.8 24 24 24z"/></svg><svg viewBox="0 0 512 512" id="camera" xmlns="http://www.w3.org/2000/svg"><path d="M448 96h-72l-8.457-22.51C358.2 48.51 334.3 32 307.6 32H204.4c-26.7 0-50.5 16.51-59.9 41.45L136 96H64c-35.35 0-64 28.7-64 64v256c0 35.35 28.65 64 64 64h384c35.35 0 64-28.65 64-64V160c0-35.3-28.7-64-64-64zm16 320c0 8.822-7.178 16-16 16H64c-8.822 0-16-7.178-16-16V160c0-8.822 7.178-16 16-16h105.2l20.19-53.64C191.7 84.16 197.8 80 204.4 80h103.3c6.631 0 12.65 4.172 14.98 10.38L342.7 144H448c8.822 0 16 7.178 16 16v256zM256 176c-61.9 0-112 50.1-112 112 0 61.86 50.14 112 112 112s112-50.14 112-112c0-61.9-50.1-112-112-112zm0 176c-35.29 0-64-28.71-64-64s28.71-64 64-64 64 28.71 64 64c0 35.3-28.7 64-64 64z"/></svg><svg viewBox="0 0 320 512" id="caret-down" xmlns="http://www.w3.org/2000/svg"><path d="M271.1 176H48.08c-42.63 0-64.25 51.77-33.88 81.9l111.9 112c18.63 18.76 49.13 18.76 67.88 0l112-112c29.12-30.1 8.72-81.9-34.88-81.9zm-112 160L47.96 224H271.1l-112 112z"/></svg><svg viewBox="0 0 256 512" id="caret-left" xmlns="http://www.w3.org/2000/svg"><path d="M208 368V144c0-42.63-51.76-64.13-82.01-33.88l-112 111.9c-18.63 18.75-18.63 49.25 0 68l112 111.9C156.2 432 208 410.7 208 368zM47.98 256l112-112v224l-112-112z"/></svg><svg viewBox="0 0 256 512" id="caret-right" xmlns="http://www.w3.org/2000/svg"><path d="M48 143.1v224c0 42.63 51.76 64.13 82.01 33.88l112-111.9c18.63-18.75 18.63-49.25 0-68l-112-111.9C99.76 79.97 48 101.3 48 143.1zm160 112l-111.99 112v-224L208 255.1z"/></svg><svg viewBox="0 0 320 512" id="caret-up" xmlns="http://www.w3.org/2000/svg"><path d="M47.97 336h224c42.63 0 64.13-51.76 33.88-82.01l-111.9-112c-18.75-18.63-49.25-18.63-68 0l-111.9 112C-16.03 284.2 5.342 336 47.97 336zM159.1 175.1l112 112H47.97l111.13-112z"/></svg><svg viewBox="0 0 576 512" id="cart-arrow-down" xmlns="http://www.w3.org/2000/svg"><path d="M303 200.1c4.7 5.6 10.9 7.9 17 7.9s12.28-2.344 16.97-7.031l64-64c9.375-9.375 9.375-24.56 0-33.94s-24.56-9.375-33.94 0L344 126.1V24c0-13.25-10.7-24-24-24s-24 10.75-24 24v102.1L272.1 103c-9.375-9.375-24.56-9.375-33.94 0s-9.375 24.56 0 33.94L303 200.1zM569.5 44.73C563.4 36.64 554.1 32 543.1 32H472c-13.3 0-24 10.74-24 24 0 13.25 10.75 24 24 24h50.77l-45.72 160H161.6l-42-220.49C117.4 8.189 107.5 0 96 0H23.1C10.74 0 0 10.74 0 23.1 0 37.25 10.74 48 23.1 48h52.14l60.28 316.5C138.6 375.8 148.5 384 160 384h328c13.25 0 24-10.75 24-23.1 0-14.2-10.7-24.9-24-24.9H179.9l-9.2-48h318.4c14.28 0 26.85-9.479 30.77-23.21l54.86-191.1c2.77-10.64.87-20.86-5.23-28.96zM176 416c-26.51 0-47.1 21.49-47.1 48s20.6 48 47.1 48 47.1-21.49 47.1-48-20.6-48-47.1-48zm287.1 0c-26.51 0-47.1 21.49-47.1 48s21.49 48 47.1 48 47.1-21.49 47.1-48-19.7-48-47.1-48z"/></svg><svg viewBox="0 0 576 512" id="cart-shopping" xmlns="http://www.w3.org/2000/svg"><path d="M175.1 416c-26.51 0-47.1 21.49-47.1 48s21.5 48 47.1 48 47.1-21.49 47.1-48-19.7-48-47.1-48zm288 0c-26.51 0-47.1 21.49-47.1 48s21.49 48 47.1 48 47.1-21.49 47.1-48-19.7-48-47.1-48zM569.5 44.73C563.391 36.636 554.08 32 543.94 32H121.1l-1.5-12.49C117.4 8.189 107.5 0 96 0H23.1C10.75 0 0 10.74 0 23.1 0 37.25 10.75 48 23.1 48h52.14l60.28 316.5C138.6 375.8 148.5 384 160 384h328c13.25 0 24-10.75 24-23.1 0-14.2-10.7-24.9-24-24.9H179.9l-9.2-48h318.4c14.28 0 26.84-9.479 30.77-23.21l54.86-191.1c2.77-10.64.87-20.86-5.23-28.96zM477 240H161.6L131.13 80h391.7L477 240z"/></svg><svg viewBox="0 0 512 512" id="check" xmlns="http://www.w3.org/2000/svg"><path d="M480.1 128.1l-272 272c-3.8 5.6-9.9 7.9-16.1 7.9s-12.28-2.344-16.97-7.031l-144-144c-9.375-9.375-9.375-24.56 0-33.94s24.56-9.375 33.94 0L192 350.1l255-255c9.375-9.375 24.56-9.375 33.94 0s9.36 24.5-.84 33z"/></svg><svg viewBox="0 0 448 512" id="chevron-down" xmlns="http://www.w3.org/2000/svg"><path d="M432.6 209.3L241.5 392.4c-6.4 5.4-12.4 7.6-17.5 7.6s-11.97-2.219-16.59-6.688L15.41 209.3c-9.596-9.1-9.908-25.2-.72-33.9 9.125-9.625 24.38-9.938 33.91-.719L224 342.8l175.4-168c9.5-9.219 24.78-8.906 33.91.719 9.19 8.581 8.89 24.681-.71 33.781z"/></svg><svg viewBox="0 0 320 512" id="chevron-left" xmlns="http://www.w3.org/2000/svg"><path d="M206.7 464.6L23.6 273.5c-5.38-6.4-7.6-12.4-7.6-17.5s2.219-11.97 6.688-16.59l183.1-191.1c9.152-9.594 24.34-9.906 33.9-.719 9.625 9.125 9.938 24.37.719 33.91L73.24 256l168 175.4c9.219 9.5 8.906 24.78-.719 33.91-9.521 9.19-24.721 8.89-33.821-.71z"/></svg><svg viewBox="0 0 320 512" id="chevron-right" xmlns="http://www.w3.org/2000/svg"><path d="M113.3 47.41l183.1 191.1c4.469 4.625 6.688 10.62 6.688 16.59s-2.219 11.97-6.688 16.59l-183.1 191.1c-9.152 9.594-24.34 9.906-33.9.719-9.625-9.125-9.938-24.38-.719-33.91l168-175.4L78.71 80.6c-9.219-9.5-8.906-24.78.719-33.91 9.561-9.19 24.771-8.87 33.871.72z"/></svg><svg viewBox="0 0 448 512" id="chevron-up" xmlns="http://www.w3.org/2000/svg"><path d="M15.41 302.7l191.1-183.1c5.49-5.4 11.49-8.5 17.49-8.5s11.97 2.219 16.59 6.688l191.1 183.1c9.594 9.152 9.906 24.34.719 33.9-9.125 9.625-24.38 9.938-33.91.719L224 169.2l-175.4 168c-9.5 9.219-24.78 8.906-33.91-.719C5.502 327 5.814 311.8 15.41 302.7z"/></svg><svg viewBox="0 0 448 512" id="chevrons-down" xmlns="http://www.w3.org/2000/svg"><path d="M207.4 265.3c9.313 8.875 23.88 8.875 33.19 0l184-176c9.563-9.156 9.906-24.34.75-33.94A24.094 24.094 0 00408 48a23.966 23.966 0 00-16.59 6.656L224 214.8 56.59 54.66c-10.49-9.13-24.78-8.85-33.94.75s-8.81 24.78.75 33.93l184 175.96zM408 240a23.966 23.966 0 00-16.59 6.656L224 406.8 56.59 246.7c-10.49-9.2-24.78-8.9-33.94.7s-8.81 24.8.75 33.9l184 176c9.313 8.875 23.88 8.875 33.19 0l184-176c9.563-9.156 9.906-24.34.75-33.94C420.6 242.5 414.3 240 408 240z"/></svg><svg viewBox="0 0 448 512" id="chevrons-left" xmlns="http://www.w3.org/2000/svg"><path d="M73.22 256l160.1-167.4c9.125-9.594 8.844-24.78-.75-33.94s-24.77-8.82-33.87.74l-176 184c-8.875 9.313-8.875 23.88 0 33.19l176 184c9.156 9.563 24.34 9.907 33.94.75C237.5 452.6 240 446.3 240 440c0-5.969-2.219-11.94-6.656-16.59L73.22 256zM425.3 423.4L265.2 256 425.3 88.6c9.125-9.594 8.844-24.78-.75-33.94s-24.78-8.813-33.94.75l-176 184c-8.875 9.313-8.875 23.88 0 33.19l176 184c9.156 9.563 24.34 9.907 33.94.75C429.5 452.6 432 446.3 432 440c0-6-2.2-11.9-6.7-16.6z"/></svg><svg viewBox="0 0 448 512" id="chevrons-right" xmlns="http://www.w3.org/2000/svg"><path d="M233.3 239.4l-176-184c-9.11-9.56-24.3-9.91-33.89-.75C18.47 59.37 16 65.68 16 71.99c0 5.969 2.219 11.94 6.656 16.59L182.8 256 22.7 423.4c-9.125 9.594-8.844 24.78.75 33.94 9.594 9.156 24.78 8.813 33.94-.75l176-184c8.81-9.29 8.81-23.89-.09-33.19zm192 0l-176-184c-9.1-9.56-24.3-9.91-33.9-.75-4.9 4.72-7.4 11.03-7.4 17.34 0 5.969 2.219 11.94 6.656 16.59L374.8 256 214.7 423.4c-9.125 9.594-8.844 24.78.75 33.94 9.594 9.156 24.78 8.813 33.94-.75l176-184c8.81-9.29 8.81-23.89-.09-33.19z"/></svg><svg viewBox="0 0 448 512" id="chevrons-up" xmlns="http://www.w3.org/2000/svg"><path d="M56.59 265.3L224 105.2l167.4 160.1c4.7 4.5 10.6 6.7 16.6 6.7 6.312 0 12.62-2.469 17.34-7.406 9.156-9.594 8.812-24.78-.75-33.94l-184-176c-9.312-8.875-23.88-8.875-33.19 0l-184 176C13.84 239.8 13.49 255 22.65 264.6s23.45 9.9 33.94.7zm184.01-18.6c-9.312-8.875-23.88-8.875-33.19 0l-184 176c-9.562 9.156-9.906 24.34-.75 33.94s24.35 9.875 33.94.75L224 297.2l167.4 160.1c4.7 4.5 10.6 6.7 16.6 6.7 6.312 0 12.62-2.469 17.34-7.406 9.156-9.594 8.812-24.78-.75-33.94L240.6 246.7z"/></svg><svg viewBox="0 0 512 512" id="clock" xmlns="http://www.w3.org/2000/svg"><path d="M280 260V152c0-13.2-10.7-24-24-24s-24 10.8-24 24v120c0 7.562 3.562 14.66 9.594 19.19l64 48C309.9 342.4 314.1 344 319.1 344c7.297 0 14.5-3.312 19.22-9.594 7.953-10.62 5.797-25.66-4.797-33.59L280 260zM255.1 0C113.7 0-.9 114.6-.9 256s114.6 256 256 256 255.1-114.6 255.1-256S397.4 0 255.1 0zm.9 464c-114.7 0-208-93.31-208-208S141.3 48 256 48s208 93.31 208 208-93.3 208-208 208z"/></svg><svg viewBox="0 0 512 512" id="clone" xmlns="http://www.w3.org/2000/svg"><path d="M448 0H224c-35.3 0-64 28.65-64 64v224c0 35.35 28.65 64 64 64h224c35.35 0 64-28.65 64-64V64c0-35.35-28.7-64-64-64zm16 288c0 8.822-7.178 16-16 16H224c-8.8 0-16-7.2-16-16V64c0-8.822 7.178-16 16-16h224c8.822 0 16 7.178 16 16v224zM304 448c0 8.822-7.178 16-16 16H64c-8.822 0-16-7.178-16-16V224c0-8.822 7.178-16 16-16h64v-48H64c-35.35 0-64 28.7-64 64v224c0 35.35 28.65 64 64 64h224c35.35 0 64-28.65 64-64v-64h-48v64z"/></svg><svg viewBox="0 0 640 512" id="code" xmlns="http://www.w3.org/2000/svg"><path d="M169.5 119.6c-9-9.7-24.2-10.2-33.9-1.1l-128 120C2.75 243 0 249.4 0 256s2.75 12.1 7.594 17.5l128 120c4.606 4.3 10.506 6.5 15.506 6.5 6.406 0 12.79-2.531 17.51-7.594 9.062-9.656 8.594-24.84-1.094-33.91L59.09 256l109.3-102.5c9.71-9.1 10.21-24.2 1.11-33.9zM390.4.875c-12.81-3.531-25.97 3.969-29.5 16.75l-128 464c-3.531 12.78 3.969 26 16.75 29.5 2.15.575 4.25.875 6.35.875 10.53 0 20.19-6.969 23.12-17.62l128-464C410.7 17.59 403.2 4.375 390.4.875zm242 237.625l-128-120c-9.656-9.062-24.88-8.594-33.91 1.094-9.062 9.656-8.594 24.84 1.094 33.91L580.9 256 471.6 358.5c-9.688 9.062-10.16 24.25-1.094 33.91C475.2 397.5 481.6 400 488 400c5.875 0 11.77-2.156 16.4-6.5l128-120c4.9-5.4 7.6-10.9 7.6-17.5s-2.7-13-7.6-17.5z"/></svg><svg viewBox="0 0 512 512" id="comment" xmlns="http://www.w3.org/2000/svg"><path d="M256 32C114.6 32 .027 125.1.027 240c0 47.63 19.91 91.25 52.91 126.2-14.88 39.5-45.87 72.88-46.37 73.25-6.625 7-8.375 17.25-4.625 26C5.818 474.2 14.38 480 24 480c61.5 0 109.1-25.75 139.1-46.25 28 9.05 60.2 14.25 92.9 14.25 141.4 0 255.1-93.13 255.1-208S397.4 32 256 32zm.1 368c-26.75 0-53.12-4.125-78.38-12.12l-22.75-7.125-19.5 13.75c-14.25 10.12-33.88 21.38-57.5 29 7.375-12.12 14.37-25.75 19.88-40.25l10.62-28-20.62-21.87C69.82 314.1 48.07 282.2 48.07 240c0-88.25 93.25-160 208-160s208 71.75 208 160S370.8 400 256.1 400z"/></svg><svg viewBox="0 0 512 512" id="comment-dots" xmlns="http://www.w3.org/2000/svg"><path d="M144 208c-17.7 0-32 14.2-32 31.1 0 18.6 14.3 32.9 32 32.9s31.1-14.25 31.1-32-13.3-32-31.1-32zm112-.9c-17.75 0-31.1 14.25-31.1 32s14.25 31.1 31.1 31.1 31.1-14.25 31.1-31.1-13.3-32-31.1-32zm112 .9c-17.75 0-31.1 14.25-31.1 32s14.25 32 31.1 32c17.75 0 31.99-14.25 31.99-32 .01-17.8-14.19-32-31.99-32zM256 31.1C114.6 31.1.9 124.22.9 239.1c0 47.62 19.91 91.25 52.91 126.3-14.87 39.5-45.87 72.88-46.37 73.25-6.624 7-8.373 17.25-4.624 26C5.818 474.2 14.38 480 24 480c61.49 0 109.1-25.75 139.1-46.25 28.87 9 60.16 14.25 92.9 14.25 141.4 0 255.1-93.13 255.1-207.1S397.4 31.1 256 31.1zm0 368.9c-26.75 0-53.12-4.125-78.36-12.12l-22.75-7.125L135.4 394.5c-14.25 10.12-33.87 21.38-57.49 29 7.374-12.12 14.37-25.75 19.87-40.25l10.62-28-20.62-21.87C69.81 314.1 48.06 282.2 48.06 240c0-88.25 93.24-160 207.1-160s207.1 71.75 207.1 160S370.8 400 256 400z"/></svg><svg viewBox="0 0 512 512" id="comment-lines" xmlns="http://www.w3.org/2000/svg"><path d="M264 272H152c-13.2 0-24 10.8-24 24s10.8 24 24 24h112c13.3 0 24-10.7 24-24s-10.7-24-24-24zm96-96H152c-13.2 0-24 10.8-24 24s10.8 24 24 24h208c13.3 0 24-10.7 24-24s-10.7-24-24-24zM256 31.1C114.6 31.1.9 124.23.9 239.1c0 47.62 19.91 91.25 52.91 126.3-14.87 39.5-45.87 72.88-46.37 73.25-6.623 7-8.373 17.25-4.623 26C5.816 474.3 14.38 480 24 480c61.49 0 109.1-25.75 139.1-46.25 28.87 9 60.16 14.25 92.9 14.25 141.4 0 255.1-93.13 255.1-207.1S397.4 31.1 256 31.1zm0 368.9c-26.75 0-53.12-4.125-78.36-12.12l-22.75-7.125L135.4 394.5c-14.25 10.12-33.87 21.38-57.49 29 7.373-12.12 14.37-25.75 19.87-40.25l10.62-28-20.62-21.88C69.81 314.1 48.06 282.3 48.06 240c0-88.25 93.24-160 207.1-160 114.7 0 207.1 71.75 207.1 160S370.8 400 256 400z"/></svg><svg viewBox="0 0 640 512" id="comment-slash" xmlns="http://www.w3.org/2000/svg"><path d="M630.8 469.1l-118.1-92.59C552 340 576 292.4 576 240c0-114.9-114.6-207.1-255.1-207.1-67.74 0-129.1 21.53-174.9 56.47L38.81 5.117C28.34-3.055 13.32-1.248 5.11 9.19c-8.167 10.44-6.344 25.53 4.078 33.7l591.1 463.1C605.6 510.3 610.8 512 615.1 512c7.125 0 14.17-3.159 18.9-9.191 9.1-10.409 7.2-25.509-3.2-33.709zM474.6 346.6L184.3 119.1C220.8 94.85 268.1 80 320.1 80c114.8 0 208 71.75 208 160 0 41-20.4 78.3-53.5 106.6zM320.1 400c-26.75 0-53.13-4.125-78.38-12.12l-22.82-7.08-19.5 13.7c-14.25 10.12-33.88 21.38-57.5 29 7.375-12.12 14.38-25.75 19.88-40.25l10.62-28-20.62-21.88C133.8 314.1 112.1 282.3 112.1 240c0-16.84 3.438-33.05 9.727-48.3L83.13 161.4c-12.21 24.3-19.1 50.8-19.1 77.7 0 47.63 19.91 91.25 52.91 126.3-14.88 39.5-45.87 72.88-46.37 73.25-6.625 7-8.374 17.25-4.624 26C69.82 474.3 78.38 480 88 480c61.5 0 109.1-25.75 139.1-46.25 28.88 9 60.15 14.25 92.9 14.25 37.51 0 73.08-6.715 105.2-18.5l-46.13-36.15A265.844 265.844 0 01320.1 400z"/></svg><svg viewBox="0 0 512 512" id="copy" xmlns="http://www.w3.org/2000/svg"><path d="M502.6 70.63L441.35 9.38C435.4 3.371 427.2 0 418.7 0H255.1c-35.35 0-64 28.66-64 64l.02 256c.88 35.4 29.58 64 64.88 64h192c35.2 0 64-28.8 64-64V93.25c0-8.48-3.4-16.62-9.4-22.62zM464 320c0 8.836-7.164 16-16 16H255.1c-8.838 0-16-7.164-16-16V64.13c0-8.836 7.164-16 16-16h128L384 96c0 17.67 14.33 32 32 32h47.1v192zM272 448c0 8.836-7.164 16-16 16H63.1c-8.838 0-16-7.164-16-16l.88-255.9c0-8.836 7.164-16 16-16H160V128H63.99c-35.35 0-64 28.65-64 64L0 448c.002 35.3 28.66 64 64 64h192c35.2 0 64-28.8 64-64v-32h-47.1l-.9 32z"/></svg><svg viewBox="0 0 512 512" id="copyright" xmlns="http://www.w3.org/2000/svg"><path d="M256 0C114.6 0 0 114.6 0 256s114.6 256 256 256 256-114.6 256-256S397.4 0 256 0zm0 464c-114.7 0-208-93.31-208-208S141.3 48 256 48s208 93.31 208 208-93.3 208-208 208zm-.9-288c21.06 0 40.92 8.312 55.83 23.38 9.375 9.344 24.53 9.5 33.97.156 9.406-9.344 9.469-24.53.156-33.97-24-24.22-55.95-37.56-89.95-37.56 0 0 .032 0 0 0-33.97 0-65.95 13.34-89.95 37.56-49.44 49.88-49.44 131 0 180.9 24 24.22 55.98 37.56 89.95 37.56.032 0 0 0 0 0 34 0 65.95-13.34 89.95-37.56 9.312-9.438 9.25-24.62-.156-33.97-9.438-9.312-24.59-9.219-33.97.156-14.91 15.06-34.77 23.38-55.83 23.38 0 0 .031 0 0 0-21.09 0-40.95-8.312-55.89-23.38-30.94-31.22-30.94-82.03 0-113.3C214.2 184.3 234 176 255.1 176z"/></svg><svg viewBox="0 0 320 512" id="dollar-sign" xmlns="http://www.w3.org/2000/svg"><path d="M302 357.8c-9.336 47.9-53.78 77.04-117.9 81.34V488c0 13.25-10.81 24-24.06 24s-23.94-10.75-23.94-24v-50.23c-3.416-.365-6.512-.238-10-.723C99.06 433.4 70.16 424.2 44.66 416l-11.88-3.781c-12.62-3.984-19.66-17.45-15.69-30.11 4-12.62 17.31-19.72 30.12-15.67l12.06 3.844c23.62 7.562 50.38 16.14 73.31 19.22 55.44 7.688 114.8-1.938 122.3-40.86C261.9 312.1 235.8 300 154 279.2l-16.03-4.109C90.25 262.6 1.375 239.4 17.97 154.2c9.334-47.94 53.88-77.02 118.1-81.29V24c0-13.25 10.67-24 23.92-24s24.08 10.75 24.08 24v50.13c3.324.357 6.42.355 9.812.826 17.44 2.422 37.5 7.22 63.16 15.11 12.66 3.891 19.78 17.33 15.88 29.98-3.875 12.67-17.25 19.8-30 15.89-23.12-7.109-40.81-11.39-55.66-13.45C132 114.8 72.66 124.4 65.09 163.4c-6.12 31.4 13.75 46.6 85.01 65.2l15.75 4.031C230.4 249.1 318.8 271.6 302 357.8z"/></svg><svg viewBox="0 0 384 512" id="down" xmlns="http://www.w3.org/2000/svg"><path d="M381.6 259.8c-5-12-16.7-19.8-29.6-19.8h-80V80c0-26.51-21.5-48-48-48h-64c-26.5 0-48 21.49-48 48v160H32a31.997 31.997 0 00-29.56 19.75C-2.516 271.7.219 285.5 9.375 294.6l160 176C175.6 476.9 183.8 480 192 480s16.38-3.125 22.62-9.375l160-176c9.18-9.125 11.88-22.925 6.98-34.825zM192 425.4L70.63 288H160V80h64v208h89.37L192 425.4z"/></svg><svg viewBox="0 0 512 512" id="download" xmlns="http://www.w3.org/2000/svg"><path d="M448 304h-53.5l-48 48H448c8.822 0 16 7.178 16 16v80c0 8.822-7.178 16-16 16H64c-8.822 0-16-7.178-16-16v-80c0-8.8 7.18-16 16-16h101.5l-48-48H64c-35.35 0-64 28.65-64 64v80c0 35.35 28.65 64 64 64h384c35.35 0 64-28.65 64-64v-80c0-35.3-28.7-64-64-64zm-16 104c0-13.26-10.75-24-24-24s-24 10.7-24 24c0 13.25 10.75 24 24 24s24-10.7 24-24zm-193-39.9c4.7 5.6 10.8 7.9 17 7.9s12.28-2.344 16.97-7.031l136-136c9.375-9.375 9.375-24.56 0-33.94s-24.56-9.375-33.94 0L280 294.1V24c0-13.25-10.7-24-24-24s-24 10.75-24 24v270.1L136.1 199c-9.375-9.375-24.56-9.375-33.94 0s-9.375 24.56 0 33.94L239 368.1z"/></svg><svg viewBox="0 0 512 512" id="ellipsis" xmlns="http://www.w3.org/2000/svg"><path d="M400 256c0 26.5 21.5 48 48 48s48-21.5 48-48-21.5-48-48-48-48 21.5-48 48zm-288 0c0-26.5-21.5-48-48-48s-48 21.5-48 48 21.5 48 48 48 48-21.5 48-48zm192 0c0-26.5-21.5-48-48-48s-48 21.5-48 48 21.5 48 48 48 48-21.5 48-48z"/></svg><svg viewBox="0 0 512 512" id="ellipsis-stroke" xmlns="http://www.w3.org/2000/svg"><path d="M256 176c-44.2 0-80 35.8-80 80s35.82 80 80 80 80-35.82 80-80-35.8-80-80-80zm0 112c-17.6 0-32-14.4-32-32s14.36-32 32-32 32 14.36 32 32-14.4 32-32 32zm176-112c-44.2 0-80 35.8-80 80s35.82 80 80 80 80-35.82 80-80-35.8-80-80-80zm0 112c-17.64 0-32-14.36-32-32s14.36-32 32-32 32 14.36 32 32-14.4 32-32 32zM80 176c-44.18 0-80 35.8-80 80s35.82 80 80 80c44.2 0 80-35.8 80-80s-35.8-80-80-80zm0 112c-17.64 0-32-14.36-32-32s14.36-32 32-32 32 14.36 32 32-14.36 32-32 32z"/></svg><svg viewBox="0 0 192 512" id="ellipsis-stroke-vertical" xmlns="http://www.w3.org/2000/svg"><path d="M176 256c0-44.18-35.82-80-80-80s-80 35.8-80 80c0 44.18 35.82 80 80 80s80-35.8 80-80zm-112 0c0-17.64 14.36-32 32-32s32 14.36 32 32-14.36 32-32 32-32-14.4-32-32zm112 176c0-44.18-35.82-80-80-80s-80 35.82-80 80 35.82 80 80 80 80-35.8 80-80zm-112 0c0-17.64 14.36-32 32-32s32 14.36 32 32-14.36 32-32 32-32-14.4-32-32zM176 80c0-44.18-35.8-80-80-80S16 35.82 16 80c0 44.2 35.82 80 80 80s80-35.8 80-80zM64 80c0-17.64 14.36-32 32-32s32 14.36 32 32-14.36 32-32 32-32-14.36-32-32z"/></svg><svg viewBox="0 0 128 512" id="ellipsis-vertical" xmlns="http://www.w3.org/2000/svg"><path d="M64 112c26.5 0 48-21.5 48-48S90.5 16 64 16 16 37.5 16 64s21.5 48 48 48zm0 288c-26.5 0-48 21.5-48 48s21.5 48 48 48 48-21.5 48-48-21.5-48-48-48zm0-192c-26.5 0-48 21.5-48 48s21.5 48 48 48 48-21.5 48-48-21.5-48-48-48z"/></svg><svg viewBox="0 0 512 512" id="envelope" xmlns="http://www.w3.org/2000/svg"><path d="M448 64H64C28.65 64 0 92.65 0 128v256c0 35.35 28.65 64 64 64h384c35.35 0 64-28.65 64-64V128c0-35.35-28.7-64-64-64zM64 112h384c8.822 0 16 7.178 16 16v22.16l-166.8 138.1c-23.19 19.28-59.34 19.27-82.47.016L48 150.2V128c0-8.8 7.18-16 16-16zm384 288H64c-8.822 0-16-7.178-16-16V212.7l136.1 113.4c20.2 16.7 45.7 25.9 71.9 25.9s51.75-9.188 71.97-25.98L464 212.7V384c0 8.8-7.2 16-16 16z"/></svg><svg viewBox="0 0 128 512" id="exclamation" xmlns="http://www.w3.org/2000/svg"><path d="M64 368c13.27 0 24-10.75 24-24V56c0-13.25-10.73-23.99-24-23.99S40 42.75 40 56v288c0 13.3 10.73 24 24 24zm0 48c-17.67 0-32 14.33-32 32s14.33 32.01 32 32.01S96 465.7 96 448s-14.33-32-32-32z"/></svg><svg viewBox="0 0 576 512" id="eye" xmlns="http://www.w3.org/2000/svg"><path d="M572.5 238.1C518.3 115.5 410.9 32 288 32S57.69 115.6 3.469 238.1C1.563 243.4 0 251 0 256c0 4.977 1.562 12.6 3.469 17.03C57.72 396.5 165.1 480 288 480s230.3-83.58 284.5-206.1c1.9-5.3 3.5-13.8 3.5-17.9 0-5-1.6-12.6-3.5-17.9zM288 432c-99.48 0-191.2-67.5-239.6-175.1C97.01 147.4 188.6 80 288 80c99.48 0 191.2 67.5 239.6 175.1C478.1 364.6 387.4 432 288 432zm0-304c-70.7 0-128 57.3-128 128s57.33 128 128 128c70.64 0 128-57.32 128-127.9 0-70.7-57.3-128.1-128-128.1zm0 208c-44.11 0-80-35.89-80-80 0-.748.2-1.441.22-2.184C213.3 255.1 218.5 256 224 256c35.35 0 64-28.65 64-64 0-5.48-.875-10.72-2.184-15.78.784-.02 1.484-.22 2.184-.22 44.11 0 80 35.89 80 80.05 0 44.05-35.9 79.95-80 79.95z"/></svg><svg viewBox="0 0 640 512" id="eye-slash" xmlns="http://www.w3.org/2000/svg"><path d="M630.8 469.1l-103.5-81.11c31.35-31.94 57.79-70.78 77.21-114.1 1.906-4.43 3.469-12.07 3.469-17.03 0-4.977-1.562-12.6-3.469-17.03-54.25-123.4-161.6-206.1-284.5-206.1-62.67 0-121.2 21.95-170.8 59.62L38.81 5.116C34.41 1.679 29.19 0 24.03 0 16.91 0 9.839 3.158 5.121 9.189c-8.188 10.44-6.37 25.53 4.068 33.7l591.1 463.1c10.5 8.203 25.57 6.333 33.69-4.073C643.1 492.4 641.2 477.3 630.8 469.1zM394.4 283.8l-81.65-63.1c3.35-9.4 6.35-18.5 6.35-28.7 0-5.48-.874-10.73-2.183-15.78 1.683-.02 2.383-.22 3.083-.22 44.11 0 80 35.89 80 80.05 0 9.85-2.3 19.05-5.6 27.75zm38.8 30.4c9.2-17.4 14.8-37 14.8-58.1 0-70.7-57.3-128.1-128-128.1-32.2 0-61.3 12.2-83.7 31.9l-48-37.6C228 95.03 273.1 80 320 80c99.48 0 191.2 67.5 239.6 175.1-18.06 40.38-42.41 74.43-70.61 101.9l-55.79-42.8zM320 384c13.42 0 26.16-2.643 38.31-6.477L302.8 334c-23.7-5.2-43.3-21.1-54-42.3l-56-43.9c-.2 2.8-.8 5.4-.8 8.2 0 70.7 57.3 128 128 128zm0 48c-99.48 0-191.2-67.5-239.6-175.1 10.83-24.22 24.09-46.03 38.81-65.86L81.28 160.4c-17.77 23.74-33.27 50.04-45.81 78.59C33.56 243.4 31.1 251 31.1 256c0 4.977 1.562 12.6 3.469 17.03 54.25 123.4 161.6 206.1 284.5 206.1 45.46 0 88.77-11.49 128.1-32.14l-42.87-33.59C378 425.4 349.5 432 320 432z"/></svg><svg viewBox="0 0 512 512" id="folder" xmlns="http://www.w3.org/2000/svg"><path d="M448 96H275.9l-49.2-45.25C214.7 38.74 198.5 32 181.5 32H64C28.65 32 0 60.66 0 96v320c0 35.34 28.65 64 64 64h384c35.35 0 64-28.66 64-64V160c0-35.3-28.7-64-64-64zM64 80h117.5c4.273 0 8.293 1.664 11.31 4.688L256 144h192c8.822 0 16 7.176 16 16v32H48V96c0-8.82 7.18-16 16-16zm384 352H64c-8.822 0-16-7.176-16-16V240h416v176c0 8.8-7.2 16-16 16z"/></svg><svg viewBox="0 0 576 512" id="folder-open" xmlns="http://www.w3.org/2000/svg"><path d="M572.6 270.3l-96 192c-5.4 10.9-16.5 17.7-29.5 17.7H64c-35.35 0-64-28.66-64-64V96c0-35.34 28.65-64 64-64h117.5c16.97 0 33.25 6.742 45.26 18.75L275.9 96H416c35.35 0 64 28.66 64 64v32h-48v-32c0-8.824-7.178-16-16-16H256l-63.2-59.31c-3-3.03-7-4.69-11.3-4.69H64c-8.82 0-16 7.18-16 16v288l71.16-142.3A31.976 31.976 0 01147.8 224H544c23.7 0 39.2 25 28.6 46.3z"/></svg><svg viewBox="0 0 512 512" id="globe" xmlns="http://www.w3.org/2000/svg"><path d="M256 16C123.5 16 16 123.5 16 256s107.5 240 240 240 239.1-107.5 239.1-240S388.5 16 256 16zm166 144h-48.7c-6.391-27.41-15.39-52.18-26.48-73.1C378.2 103.8 404.2 129.2 422 160zm-86 96c0 16.98-1.295 32.82-3.176 48H179.2c-1.9-15.2-3.2-31.9-3.2-48s1.295-32.82 3.176-48h153.6C334.7 223.2 336 239 336 256zm-80 192c-21.79 0-50.87-36.42-67.28-96h134.6c-16.42 59.6-45.52 96-67.32 96zm-67.3-288c16.4-59.6 45.5-96 67.3-96s50.87 36.42 67.28 96H188.7zm-23.5-73.1c-11.1 20.9-20.1 45.7-26.5 73.1H89.98c17.82-30.8 43.82-56.2 75.22-73.1zM70.32 208h60.25c-1.67 15.5-2.57 31.6-2.57 48s.9 32.5 2.6 48H70.32C66.34 288.6 64 272.6 64 256s2.34-32.6 6.32-48zm19.66 144h48.72c6.391 27.41 15.39 52.18 26.48 73.1-31.38-16.9-57.38-42.3-75.2-73.1zm256.82 73.1c11.1-20.9 20.1-45.7 26.5-73.1h48.74c-17.84 30.8-43.84 56.2-75.24 73.1zM441.7 304h-60.25c1.68-15.51 2.57-31.56 2.57-48s-.89-32.49-2.57-48h60.25c4 15.4 6.3 31.4 6.3 48s-2.3 32.6-6.3 48z"/></svg><svg viewBox="0 0 512 512" id="grid" xmlns="http://www.w3.org/2000/svg"><path d="M96 192H32c-17.67 0-32 14.3-32 32v64c0 17.67 14.33 32 32 32h64c17.67 0 32-14.33 32-32v-64c0-17.7-14.3-32-32-32zm-16 80H48v-32h32v32zM480 0h-64c-17.67 0-32 14.33-32 32v64c0 17.67 14.33 32 32 32h64c17.67 0 32-14.33 32-32V32c0-17.67-14.3-32-32-32zm-16 80h-32V48h32v32zM288 0h-64c-17.7 0-32 14.33-32 32v64c0 17.67 14.33 32 32 32h64c17.67 0 32-14.33 32-32V32c0-17.67-14.3-32-32-32zm-16 80h-32V48h32v32zM96 384H32c-17.67 0-32 14.33-32 32v64c0 17.67 14.33 32 32 32h64c17.67 0 32-14.33 32-32v-64c0-17.7-14.3-32-32-32zm-16 80H48v-32h32v32zM96 0H32C14.33 0 0 14.33 0 32v64c0 17.67 14.33 32 32 32h64c17.67 0 32-14.33 32-32V32c0-17.67-14.3-32-32-32zM80 80H48V48h32v32zm208 112h-64c-17.7 0-32 14.3-32 32v64c0 17.67 14.33 32 32 32h64c17.67 0 32-14.33 32-32v-64c0-17.7-14.3-32-32-32zm-16 80h-32v-32h32v32zm208 112h-64c-17.67 0-32 14.33-32 32v64c0 17.67 14.33 32 32 32h64c17.67 0 32-14.33 32-32v-64c0-17.7-14.3-32-32-32zm-16 80h-32v-32h32v32zm-176-80h-64c-17.67 0-32 14.33-32 32v64c0 17.67 14.33 32 32 32h64c17.67 0 32-14.33 32-32v-64c0-17.7-14.3-32-32-32zm-16 80h-32v-32h32v32zm208-272h-64c-17.67 0-32 14.33-32 32v64c0 17.67 14.33 32 32 32h64c17.67 0 32-14.33 32-32v-64c0-17.7-14.3-32-32-32zm-16 80h-32v-32h32v32z"/></svg><svg viewBox="0 0 448 512" id="hashtag" xmlns="http://www.w3.org/2000/svg"><path d="M424 136l-74.01-.025 13.63-75.76c2.344-13.03-6.312-25.53-19.38-27.88-13-2.188-25.5 6.344-27.88 19.38l-15.16 84.26H190l13.63-75.76c2.344-13.03-6.312-25.53-19.38-27.88C171.2 30.15 158.7 38.69 156.4 51.72l-15.16 84.26H56c-13.25 0-24 10.78-24 24.03 0 13.25 10.75 23.97 24 23.97h76.57l-25.92 144H24c-13.25 0-24 10.76-24 24.01C0 365.3 10.75 376 24 376l74.01-.008-13.63 75.76c-2.344 13.03 6.312 25.53 19.38 27.88 1.44.268 2.84.368 4.24.368 11.38 0 21.5-8.158 23.59-19.75l15.16-84.26h111.2l-13.63 75.76c-2.344 13.03 6.312 25.53 19.38 27.88 1.5.27 2.9.37 4.3.37 11.38 0 21.5-8.158 23.59-19.75l15.16-84.26L392 376c13.25 0 24-10.75 24-23.1 0-13.25-10.75-24.01-24-24.01h-76.57l25.92-144L424 184c13.25 0 24-10.75 24-23.1 0-14.1-10.7-24.9-24-24.9zM266.7 327.1H155.5l25.92-144h111.2l-25.92 144z"/></svg><svg viewBox="0 0 512 512" id="headset" xmlns="http://www.w3.org/2000/svg"><path d="M256 0C112.9 0 4.583 119.1.02 256L0 309.2C0 350.5 32.75 384 73.14 384h18.29c20.17 0 36.57-16.7 36.57-37.4V213.4c0-20.7-16.4-37.4-36.57-37.4H73.14c-3.277 0-6.344.715-9.498 1.148C94.8 101.5 169.3 48.2 256 48.19c86.74.012 161.2 53.36 192.4 128.1-3.2.41-6.3-.29-9.5-.29h-18.29C400.4 176 384 192.7 384 213.4v133.2c0 20.7 16.4 37.4 36.6 37.4h18.29c8.875 0 17.27-1.861 25.14-4.82V400c0 22.06-17.94 40-40 40h-110.7C305 425.7 289.7 416 272 416h-32c-26.5 0-48 21.5-48 48s21.5 48 47.1 48H272c17.72 0 33.03-9.711 41.34-24H424c48.53 0 88-39.47 88-88V256C507.4 119.1 399.1 0 256 0zM73.14 224H80v112h-6.86C59.28 336 48 323.1 48 309.2V256c0-2.41.28-4.75.361-7.141C49.33 235 59.91 224 73.14 224zM438.9 336H432V224h6.857c13.23 0 23.81 11.04 24.78 24.86.063 2.44.363 4.74.363 7.14v53.24c0 13.86-11.3 26.76-25.1 26.76z"/></svg><svg viewBox="0 0 512 512" id="heart" xmlns="http://www.w3.org/2000/svg"><path d="M462.1 62.86C438.8 41.92 408.9 31.1 378.7 32c-37.49 0-75.33 15.4-103 43.98L256 96.25l-19.7-20.27C208.6 47.4 170.8 32 133.3 32c-30.2 0-60.07 9.93-84.26 30.86-62.14 53.79-65.25 149.7-9.23 207.6l193.2 199.7c6.39 6.54 14.59 9.84 22.89 9.84 8.332 0 16.69-3.267 23.01-9.804l193.1-199.7C528.2 212.5 525.1 116.6 462.1 62.86zM437.6 237.1L256 424.9 74.34 237.1c-32.24-33.3-39.88-99 6.12-137.95 39.9-34.54 94.59-17.5 121.4 10.17l54.17 55.92 54.16-55.92c26.42-27.27 81.26-44.89 121.4-10.17C477.1 138.6 470.5 203.1 437.6 237.1z"/></svg><svg viewBox="0 0 576 512" id="house" xmlns="http://www.w3.org/2000/svg"><path d="M208 216v79.1c0 22.06 17.94 39.1 39.1 39.1h79.1c22.06 0 39.1-17.94 39.1-39.1V216c0-22.06-17.94-39.1-39.1-39.1H248c-22.1-.9-40 17-40 39.1zm48 8h63.1v63.1H256V224zm319.1 23.1c0-6.802-2.877-13.56-8.471-18.31l-55.53-47.12V55.99c0-13.25-10.75-24-23.1-24s-23.1 10.75-23.1 24v85.85l-160.5-136.2c-4.484-3.781-10.01-5.669-15.53-5.669S276.1 1.891 272.5 5.672L8.472 229.7c-5.594 4.7-8.47 11.5-8.47 17.4 0 16.03 13.69 24 24.01 24 5.483 0 10.1-1.867 15.52-5.687l24.47-20.76.01 202.5c0 35.35 28.65 63.1 63.1 63.1h319.1c35.35 0 63.1-28.65 63.1-63.1v-202.5l24.47 20.76a23.994 23.994 0 0015.52 5.688C562.1 271.1 575.1 263.1 575.1 247.1zm-112 200c0 8.799-7.199 16-15.1 16H128c-8.801 0-15.1-7.201-15.1-16v-240c0-.963-.438-1.783-.549-2.717L288 55.46 463.1 204.8v242.3z"/></svg><svg viewBox="0 0 512 512" id="image" xmlns="http://www.w3.org/2000/svg"><path d="M152 120c-26.51 0-48 21.49-48 48s21.49 48 48 48 48-21.49 48-48-21.5-48-48-48zm295.1-88h-384C28.65 32-.01 60.65-.01 96v320c0 35.35 28.65 64 63.1 64h384c35.35 0 64-28.65 64-64V96c.01-35.35-27.79-64-63.99-64zm16 377.3L326.3 223.4c-2.5-4.6-8.2-7.4-14.3-7.4-6.113 0-11.82 2.768-15.21 7.379l-106.6 144.1-37.09-46.1c-3.441-4.279-8.934-6.809-14.77-6.809-5.842 0-11.33 2.529-14.78 6.809l-75.52 93.81c0-.03 0 .03 0 0L47.99 96c0-8.822 7.178-16 16-16h384c8.822 0 16 7.178 16 16v313.3z"/></svg><svg viewBox="0 0 512 512" id="inbox-in" xmlns="http://www.w3.org/2000/svg"><path d="M464 320h-96a23.964 23.964 0 00-21.47 13.28L321.2 384H190.8l-25.38-50.72C161.4 325.1 153.1 320 144 320H32c-17.67 0-32 14.33-32 32v96c0 35.35 28.65 64 64 64h384c35.35 0 64-28.65 64-64v-80c0-26.5-21.5-48-48-48zm0 128c0 8.822-7.178 16-16 16H64c-8.822 0-16-7.178-16-16v-80h81.16l25.38 50.72C158.6 426.9 166.9 432 176 432h160c9.094 0 17.41-5.125 21.47-13.28L382.8 368H464v80zM238.4 312.3c3.7 4.9 10.9 7.7 17.6 7.7s13.03-2.781 17.59-7.656l104-112c9-9.719 8.438-24.91-1.25-33.94-9.719-8.969-24.88-8.438-33.94 1.25L280 234.9V24c0-13.25-10.75-24-24-24s-24 10.75-24 24v210.9l-62.4-67.2c-9.1-10.6-24.2-10.3-33.9-1.3-10.6 9-10.3 24.2-1.3 33.9l104 112z"/></svg><svg viewBox="0 0 512 512" id="inbox-out" xmlns="http://www.w3.org/2000/svg"><path d="M464 320h-96a23.964 23.964 0 00-21.47 13.28L321.2 384H190.8l-25.38-50.72C161.4 325.1 153.1 320 144 320H32c-17.67 0-32 14.33-32 32v96c0 35.35 28.65 64 64 64h384c35.35 0 64-28.65 64-64v-80c0-26.5-21.5-48-48-48zm0 128c0 8.822-7.178 16-16 16H64c-8.822 0-16-7.178-16-16v-80h81.16l25.38 50.72C158.6 426.9 166.9 432 176 432h160c9.094 0 17.41-5.125 21.47-13.28L382.8 368H464v80zM169.6 152.3L232 85.13V296c0 13.3 10.8 24 24 24s24-10.75 24-24V85.13l62.41 67.21C347.2 157.4 353.6 160 360 160a23.99 23.99 0 0016.34-6.406c9.688-9.031 10.25-24.22 1.25-33.94l-104-112c-9.125-9.75-26.06-9.75-35.19 0l-104 112c-9 9.719-8.438 24.91 1.25 33.94 9.75 9.006 24.85 8.506 33.95-1.294z"/></svg><svg viewBox="0 0 192 512" id="info" xmlns="http://www.w3.org/2000/svg"><path d="M168 464h-48V200c0-13.25-10.75-24-24-24H56c-13.25 0-24 10.8-24 24s10.75 24 24 24h16v240H24c-13.25 0-24 10.8-24 24s10.75 24 24 24h144c13.25 0 24-10.75 24-24s-10.7-24-24-24zM96 128c26.51 0 48-21.49 48-48s-21.5-47.99-48-47.99-48 21.49-48 48S69.49 128 96 128z"/></svg><svg viewBox="0 0 640 512" id="language" xmlns="http://www.w3.org/2000/svg"><path d="M147.2 272h25.69L160 243.1 147.2 272zM576 63.1H64c-35.35 0-64 28.65-64 64v256c0 35.35 28.65 64 64 64h512c35.35 0 64-28.65 64-64v-256c0-34.45-28.7-64-64-64zM233.8 349.9c-3.2 1.4-6.5 2.1-9.8 2.1-9.188 0-17.97-5.312-21.94-14.25l-8.96-18.15c.2.1-.4.4-1.1.4h-64c-.707 0-1.305-.342-1.996-.402l-8.066 18.15c-5.406 12.14-19.69 17.55-31.69 12.19-12.12-5.391-17.56-19.58-12.19-31.69l64-144c7.688-17.34 36.19-17.34 43.88 0l64 144C251.3 330.4 245.9 344.5 233.8 349.9zM592 384c0 8.822-7.178 16-16 16H320V112h256c8.822 0 16 7.178 16 16v256zm-64-200h-48c0-13.2-10.7-24-24-24s-24 10.8-24 24h-48c-13.25 0-24 10.75-24 24s10.8 24 24 24h91.51c-5.439 13.51-12.17 24.84-19.56 34.21-1.973-2.496-3.971-4.912-5.854-7.682-7.406-10.97-22.31-13.83-33.34-6.375-10.94 7.453-13.81 22.38-6.344 33.34 3.195 4.705 6.562 8.906 9.938 13.03-7.213 4.467-12.5 6.885-13.25 7.189-12.25 4.891-18.28 18.78-13.44 31.08A24.057 24.057 0 00416 352a23.73 23.73 0 008.781-1.672c1.283-.502 14.49-6.148 31.18-18.19 16.93 12.23 30.26 17.79 31.26 18.19C490.1 351.5 493.1 352 495.1 352c9.5 0 18.47-5.719 22.25-15.09 4.906-12.25-1.062-26.19-13.28-31.19-.127-.05-5.607-2.432-13.46-7.375C505.5 281.3 518.5 259.8 526.5 232h1.5c13.25 0 24-10.75 24-24s-10.7-24-24-24z"/></svg><svg viewBox="0 0 448 512" id="left" xmlns="http://www.w3.org/2000/svg"><path d="M220.3 445.6c11.9-5 19.7-16.7 19.7-29.6v-80h160c26.51 0 48-21.49 48-48v-64c0-26.51-21.49-48-48-48H240V96c0-12.94-7.797-24.61-19.75-29.56-11.95-4.96-25.75-2.22-34.85 6.94l-176 160C3.125 239.6 0 247.8 0 256s3.125 16.38 9.375 22.62l176 160c9.125 9.18 22.925 11.88 34.925 6.98zM54.63 256L192 134.6V224h208v64H192v89.37L54.63 256z"/></svg><svg viewBox="0 0 640 512" id="link" xmlns="http://www.w3.org/2000/svg"><path d="M597.9 42.09C570.62 14.83 535.04.81 499.22.03c-37.92-.823-76.1 13.2-104.1 42.06L337.4 98.94c14.39 7.424 27.91 16.53 39.99 27.88l50.79-50.8c18.72-18.7 43.3-28.06 67.89-28.06 24.58 0 49.17 9.359 67.89 28.06 37.42 37.44 37.42 98.34 0 135.8l-113.1 113.1c-36.3 36.3-99.5 36.27-135.8 0-18.14-18.14-28.12-42.23-28.12-67.89 0-17.56 5-34.23 13.78-48.93-11.25-10.37-26.89-16.42-43.5-16.42-.688 0-1.338.168-2.021.187C244.9 211.9 238.9 233.9 238.9 257c0 38.47 14.99 74.64 42.19 101.8 27.19 27.2 63.36 42.19 101.8 42.19 38.45 0 74.63-14.98 101.8-42.19l113.1-113.1c27.31-28 41.31-64.9 42.21-101.8 0-36.9-14.9-73.73-42.1-101.81zM211.8 435.1c-18.72 18.7-43.3 28.06-67.89 28.06-24.58 0-49.17-9.359-67.89-28.06-37.42-37.44-37.42-98.34 0-135.8l113.1-113.1c36.3-36.3 99.5-36.27 135.8 0 18.14 18.14 28.12 42.23 28.12 67.89 0 17.56-5 34.23-13.78 48.93 11.25 10.37 26.89 16.42 43.5 16.42.688 0 1.338-.168 2.021-.187 10.24-20.02 16.26-42.03 16.26-65.16 0-38.47-14.99-74.64-42.19-101.8-27.19-27.2-63.36-42.19-101.8-42.19-38.45 0-74.63 14.98-101.8 42.19L42.11 266.3C14.04 294.3 0 331.2 0 368.1c0 36.88 14.04 73.75 42.11 101.8 26.11 26.09 59.71 40.16 93.96 41.99 39.42 2.108 79.65-11.96 109.7-41.99l56.83-56.8c-14.39-7.424-27.91-16.53-39.99-27.88L211.8 435.1z"/></svg><svg viewBox="0 0 640 512" id="link-slash" xmlns="http://www.w3.org/2000/svg"><path d="M211.8 435.1c-18.72 18.7-43.3 28.06-67.89 28.06-24.58 0-49.17-9.359-67.89-28.06-37.42-37.44-37.42-98.34 0-135.8l80.68-80.67-38-28.93-76.56 76.55c-56.14 56.16-56.14 147.5 0 203.7 56.16 56.13 147.5 56.13 203.7 0l56.76-56.85c-14.39-7.424-27.91-16.53-39.99-27.88L211.8 435.1zm275.3-78.6l110.8-110.7c56.14-56.16 56.14-147.5 0-203.7-56.16-56.13-147.5-56.13-203.7 0l-56.8 56.84c14.39 7.424 27.91 16.53 39.99 27.88l50.79-50.8c18.72-18.7 43.3-28.06 67.89-28.06 24.58 0 49.17 9.359 67.89 28.06 37.42 37.44 37.42 98.34 0 135.8l-113.1 113.1c-.592.592-1.285 1.035-1.891 1.607l-51.64-40.47c2.379-10.09 3.787-20.47 3.787-31.12 0-38.47-14.99-74.64-42.19-101.8-27.19-27.2-63.36-42.19-101.8-42.19-22.51 0-43.96 5.695-63.56 15.41L38.81 5.109A23.96 23.96 0 0024.03 0C16.905 0 9.84 3.156 5.12 9.187c-8.188 10.44-6.375 25.53 4.062 33.7l591.1 463.1c10.5 8.203 25.56 6.328 33.69-4.078 8.188-10.44 6.375-25.53-4.062-33.7L487.1 356.5zM238.7 161.8c30.51-5.693 63.58 2.621 86.23 25.27 17.22 17.22 26.79 39.87 27.75 64.06L238.7 161.8zm42.4 197.1c27.19 27.2 63.36 42.19 101.8 42.19 1.633 0 3.184-.414 4.807-.469L241.1 286.4c6.5 27.2 19 52.3 40 72.5z"/></svg><svg viewBox="0 0 512 512" id="list" xmlns="http://www.w3.org/2000/svg"><path d="M80 208H16c-8.875 0-16 7.1-16 16v64c0 8.875 7.125 16 16 16h64c8.88 0 16-7.1 16-16v-64c0-8.9-7.12-16-16-16zm0 160H16c-8.875 0-16 7.1-16 16v64c0 8.875 7.125 16 16 16h64c8.88 0 16-7.1 16-16v-64c0-8.9-7.12-16-16-16zm0-320H16C7.125 48 0 55.13 0 64v64c0 8.875 7.125 16 16 16h64c8.88 0 16-7.1 16-16V64c0-8.87-7.12-16-16-16zm408 184H183.1c-12.4 0-23.1 10.7-23.1 24s10.75 24 23.1 24H488c13.3 0 24-10.7 24-24s-10.7-24-24-24zm0-160H183.1C170.7 72 160 82.75 160 95.1s10.7 24.9 23.1 24.9H488c13.25 0 24-10.75 24-23.1S501.3 72 488 72zm0 320H183.1c-12.4 0-23.1 10.7-23.1 24s10.75 24 23.1 24H488c13.25 0 24-10.75 24-24s-10.7-24-24-24z"/></svg><svg viewBox="0 0 512 512" id="loader" xmlns="http://www.w3.org/2000/svg"><path d="M256 0c-13.2 0-24 10.75-24 24v80c0 13.3 10.8 24 24 24s24-10.75 24-24V24c0-13.25-10.7-24-24-24zm0 384c-13.25 0-24 10.75-24 24v80c0 13.3 10.8 24 24 24s24-10.75 24-24v-80c0-13.2-10.7-24-24-24zm232-152h-80c-13.2 0-24 10.8-24 24s10.75 24 24 24h80c13.3 0 24-10.7 24-24s-10.7-24-24-24zm-360 24c0-13.25-10.75-24-24-24H24c-13.25 0-24 10.8-24 24s10.75 24 24 24h80c13.3 0 24-10.7 24-24zm235.5-83.5c6.125 0 12.28-2.344 16.97-7.031l56.59-56.56c9.375-9.359 9.375-24.56 0-33.94-9.344-9.344-24.53-9.406-33.94 0L346.5 131.5c-9.375 9.359-9.375 24.56 0 33.94 4.7 4.76 10.8 7.06 17 7.06zm-231.9 174l-56.59 56.56c-9.375 9.359-9.375 24.56 0 33.94a23.89 23.89 0 0016.97 7.031c6.125 0 12.28-2.344 16.97-7.031l56.59-56.56c9.375-9.359 9.375-24.56 0-33.94-9.34-9.3-25.44-9.4-33.94 0zm248.8 0c-9.406-9.391-24.59-9.359-33.94 0-9.375 9.375-9.375 24.58 0 33.94L403.05 437a23.942 23.942 0 0016.97 7.031c6.156 0 12.28-2.344 16.97-7.031 9.375-9.375 9.375-24.58 0-33.94L380.4 346.5zM108.9 74.98c-9.375-9.406-24.56-9.344-33.94 0-9.375 9.375-9.375 24.58 0 33.94l56.59 56.56a23.942 23.942 0 0016.97 7.031c6.156 0 12.28-2.344 16.97-7.031 9.375-9.375 9.375-24.58 0-33.94L108.9 74.98z"/></svg><svg viewBox="0 0 384 512" id="location" xmlns="http://www.w3.org/2000/svg"><path d="M192 0C85.97 0 0 85.97 0 192c0 77.41 26.97 99.03 172.3 309.7 4.7 6.9 12.2 10.3 19.7 10.3s14.95-3.441 19.72-10.32C357 291 384 269.4 384 192 384 85.97 298 0 192 0zm0 445.8c-17.69-25.46-33.42-47.87-47.38-67.75C57.56 254.1 48 238.9 48 192c0-79.4 64.6-144 144-144s144 64.6 144 144c0 46.88-9.562 62.07-96.62 186.1-13.98 19-29.68 42.3-47.38 67.7z"/></svg><svg viewBox="0 0 384 512" id="location-dot" xmlns="http://www.w3.org/2000/svg"><path d="M192 0C85.97 0 0 85.97 0 192c0 77.41 26.97 99.03 172.3 309.7 4.7 6.9 12.2 10.3 19.7 10.3s14.95-3.441 19.72-10.32C357 291 384 269.4 384 192 384 85.97 298 0 192 0zm0 445.8c-17.69-25.46-33.42-47.87-47.38-67.75C57.56 254.1 48 238.9 48 192c0-79.4 64.6-144 144-144s144 64.6 144 144c0 46.88-9.562 62.07-96.62 186.1-13.98 19-29.68 42.3-47.38 67.7zm0-334.7c-44.18 0-80 35.82-80 80s35.8 80 80 80c44.18 0 80-35.82 80-80s-35.8-80-80-80zm0 112.9c-17.6 0-32-14.4-32-32s14.36-32 32-32 32 14.36 32 32-14.4 32-32 32z"/></svg><svg viewBox="0 0 640 512" id="location-dot-slash" xmlns="http://www.w3.org/2000/svg"><path d="M630.8 469.1L457 332.9c43.85-65.18 54.94-92.34 54.94-140.9C511.94 86 425.97.9 320.84.9c-70.86 0-132.1 38.77-165.3 95.91L39.74 6.01C34.41 1.672 29.19 0 24.03 0 16.91 0 9.846 3.156 5.127 9.187-3.061 19.62-1.248 34.72 9.189 42.89l591.1 463.1c10.5 8.203 25.56 6.328 33.69-4.078C643.1 492.4 641.2 477.3 630.8 469.1zM320 224c-.9 0-1.7-.4-2.6-.5L290 202c-1.9-3.2-2-6.5-2-10 0-17.64 14.36-32 32-32s32 14.36 32 32-14.4 32-32 32zm43 35.2c22.16-14.22 36.97-38.93 36.97-67.23 0-44.18-35.82-79.1-79.1-79.1-35.17 0-64.69 22.84-75.42 54.38L192.9 125.9C216.7 79.7 264.5 48 320 48c79.4 0 144 64.6 144 144 0 34.97-5.947 53.08-44.86 111.2l-56.14-44zm-43 186.6c-17.69-25.46-33.42-47.87-47.38-67.75C220 303.1 195.8 267.1 184.8 241.5l-56.7-44.4c1.256 73.26 30.18 98.77 172.2 304.6 4.7 6.9 12.2 9.4 19.7 9.4s14.95-3.444 19.72-10.33c24.04-34.84 44.56-64.11 62.53-89.72l-37.83-29.64C351.2 401.2 336.5 422.1 320 445.8z"/></svg><svg viewBox="0 0 448 512" id="lock" xmlns="http://www.w3.org/2000/svg"><path d="M384 192h-32v-64.9C352 56.52 294.58 0 224 0S96 57.42 96 127.1V192H64c-35.35 0-64 28.7-64 64v191.1c0 35.35 28.65 64 64 64h320c35.35 0 64-28.65 64-64V256c0-35.3-28.7-64-64-64zm-240-64c0-44.11 35.89-80 80-80s80 35.89 80 80v64H144v-64zm256 320c0 8.822-7.178 16-16 16H64c-8.822 0-16-7.178-16-16V256c0-8.822 7.178-16 16-16h320c8.822 0 16 7.178 16 16v192z"/></svg><svg viewBox="0 0 576 512" id="lock-open" xmlns="http://www.w3.org/2000/svg"><path d="M432 0c-70.58 0-128 57.42-128 128v64H64c-35.35 0-64 28.7-64 64v192c0 35.35 28.65 64 64 64h320c35.35 0 64-28.65 64-64V256c0-35.35-28.65-64-64-64h-32v-64c0-44.11 35.89-80 80-80s80 35.89 80 80v72c0 13.3 10.8 24 24 24s24-10.75 24-24v-72C560 57.42 502.6 0 432 0zm-48 240c8.822 0 16 7.178 16 16v192c0 8.822-7.178 16-16 16H64c-8.822 0-16-7.178-16-16V256c0-8.822 7.178-16 16-16h320zM224 400c13.25 0 24-10.75 24-24v-48c0-13.2-10.7-24-24-24s-24 10.75-24 24v48c0 13.3 10.8 24 24 24z"/></svg><svg viewBox="0 0 512 512" id="magnifying-glass" xmlns="http://www.w3.org/2000/svg"><path d="M504.1 471l-134-134c29-35.5 45-80.2 45-129 0-114.9-93.13-208-208-208S0 93.13 0 208s93.12 208 207.1 208c48.79 0 93.55-16.91 129-45.04l134 134c5.6 4.74 11.8 7.04 17.9 7.04s12.28-2.344 16.97-7.031c9.33-9.369 9.33-24.569-.87-33.969zM48 208c0-88.22 71.78-160 160-160s160 71.78 160 160-71.78 160-160 160S48 296.2 48 208z"/></svg><svg viewBox="0 0 576 512" id="map" xmlns="http://www.w3.org/2000/svg"><path d="M554 33.15L384 95.1 212 35.25c-6.5-2.125-13.19-3.249-20.06-3.249-6.625 0-13.56 1-19.94 3.124L20.12 87.1C8 92.75 0 104.6 0 117.6V464c0 10.89 10.85 19.02 22 14.84l170-63.74 172 60.75c13 4.25 27 4.375 40 .125l151.9-52.88C568 419.2 576 407.4 576 394.4V48.01c0-10.89-10.8-19.05-22-14.86zM224 90.37l128 45.25v286l-128-45.25v-286zM48 417.1v-288l128-44.62v286.3L48 417.1zm480-34.2l-128 44.63V141.2l128-47.25V382.9z"/></svg><svg viewBox="0 0 576 512" id="map-location" xmlns="http://www.w3.org/2000/svg"><path d="M300.3 313.5C391.1 181.9 408 168.4 408 120 408 53.73 354.3 0 288 0S168 53.73 168 120c0 48.38 16.86 61.9 107.7 193.5 5.9 8.7 18.7 8.7 24.6 0zM554 97.13L438.9 139.7c-2.232 20.16-8.59 37.14-21.47 59.11L528 158v256.9l-128 44.63V226.2c-8.781 13.07-42.24 60.81-48 69.05v158.3L224 408.3v-113c-5.8-8.3-39.2-56-48-69.1v176.5L48 449.95V193.1l93.35-32.55C137.7 148 136 135.4 136 120c0-2.961.707-5.727.875-8.646L20.13 152C8 156.8 0 168.6 0 181.6V496c0 10.89 10.85 19.03 22 14.84l170-63.74 172 60.75c13 4.25 27 4.375 40 .125l151.9-52.88C568 451.2 576 439.4 576 426.4V112c0-10.9-10.8-19.06-22-14.87z"/></svg><svg viewBox="0 0 576 512" id="map-location-dot" xmlns="http://www.w3.org/2000/svg"><path d="M300.3 313.5C391.1 181.9 408 168.4 408 120 408 53.73 354.3 0 288 0S168 53.73 168 120c0 48.38 16.86 61.9 107.7 193.5 5.9 8.7 18.7 8.7 24.6 0zM248 112c0-22.09 17.91-40 40-40s40 17.91 40 40-17.9 40-40 40-40-17.9-40-40zm305.1-14.87L438 139.7c-2.232 20.16-8.59 37.14-21.47 59.11L528 158v256.9l-128 44.63V226.2c-8.781 13.07-42.24 60.81-48 69.05v158.3L224 408.3v-113c-5.8-8.3-39.2-56-48-69.1v176.5L48 449.95V193.1l93.35-32.55C137.7 148 136 135.4 136 120c0-2.961.707-5.727.875-8.646L20.13 152C8 156.8 0 168.6 0 181.6V496c0 10.89 10.85 19.03 22 14.84l170-63.74 172 60.75c13 4.25 27 4.375 40 .125l151.9-52.88C568 451.2 576 439.4 576 426.4V112c0-10.9-10.8-19.06-22.9-14.87z"/></svg><svg viewBox="0 0 512 512" id="pen" xmlns="http://www.w3.org/2000/svg"><path d="M455.7 18.75A63.815 63.815 0 00410.5 0c-16.38 0-32.76 6.25-45.26 18.75L45.11 338.9a63.91 63.91 0 00-17.18 31.21L.32 492.91C-1.7 502.1 6.159 512 15.95 512a16.26 16.26 0 003.198-.32s84.61-17.95 122.8-26.93c11.54-2.717 21.87-8.523 30.25-16.9l321.2-321.2c24.99-24.99 24.9-65.42-.09-90.41L455.7 18.75zM138.2 433.9c-2.115 2.115-4.503 3.463-7.308 4.123-18.17 4.281-47.46 10.71-72.69 16.18l16.55-73.58a15.992 15.992 0 014.296-7.803l241.9-241.9 60.13 60.13L138.2 433.9z"/></svg><svg viewBox="0 0 512 512" id="pen-to-square" xmlns="http://www.w3.org/2000/svg"><path d="M495.6 49.23l-32.82-32.82C451.8 5.471 437.5 0 423.1 0c-14.33 0-28.66 5.469-39.6 16.41l-216 216.09c-8.4 7.5-12.7 17-15.1 27.3l-24.1 107.4c-1.8 8.9 5.1 16.8 12.8 16.8.916 0 1.852-.092 2.797-.281 0 0 74.03-15.71 107.4-23.56 10.1-2.377 19.13-7.46 26.46-14.79l217-217C517.5 106.5 517.4 71.1 495.6 49.23zM461.7 94.4l-217 217c-1.1 1.1-2.2 1.7-3.5 2-13.7 3.227-34.65 7.857-54.3 12.14l12.41-55.2c.29-1.44.99-2.84 2.09-3.84L417.5 50.4c1.9-1.99 4.1-2.4 5.6-2.4s3.715.406 5.65 2.342l32.82 32.83c3.23 3.168 3.23 8.098.13 11.228zM424 288c-13.25 0-24 10.75-24 24v128c0 13.23-10.78 24-24 24H72c-13.22 0-24-10.77-24-24V136c0-13.23 10.78-24 24-24h144c13.25 0 24-10.75 24-24s-10.7-24-24-24l-144.9-.01C32.31 63.99 0 96.29 0 135.1v304C0 479.7 32.31 512 71.1 512h303.1c39.69 0 71.1-32.3 71.1-72l2.7-128c0-13.2-10.7-24-24-24z"/></svg><svg viewBox="0 0 512 512" id="phone" xmlns="http://www.w3.org/2000/svg"><path d="M480.3 320.3l-98.2-42.1c-21.41-9.281-46.64-3.109-61.2 14.95l-27.44 33.5c-44.78-25.75-82.29-63.25-108-107.1l33.55-27.48c17.91-14.62 24.09-39.7 15.02-61.05L191.7 31.53c-10.16-23.2-35.34-35.86-59.87-30.19L40.58 22.4C16.7 27.86 0 48.83 0 73.39c0 241.9 196.7 438.6 438.6 438.6 24.56 0 45.53-16.69 50.1-40.53l21.06-91.34c6.64-24.62-6.16-49.82-29.46-59.82zm-16.4 49l-21.09 91.41c-.469 1.1-2.109 3.281-4.219 3.281-215.4 0-390.6-175.2-390.6-390.6 0-2.094 1.297-3.734 3.344-4.203l91.34-21.08c.312-.078.64-.11.953-.11 1.734 0 3.36 1.048 4.047 2.61l42.14 98.33a4.353 4.353 0 01-1.25 5.062L139.8 193.1c-8.625 7.062-11.25 19.14-6.344 29.14 33.01 67.23 88.26 122.5 155.5 155.5 9.1 4.906 22.09 2.281 29.16-6.344l40.01-48.87c1.109-1.406 3.187-1.938 4.922-1.125l98.26 42.09c1.892 1.709 2.992 3.809 2.592 5.809z"/></svg><svg viewBox="0 0 512 512" id="print" xmlns="http://www.w3.org/2000/svg"><path d="M111.1 48h254.1L400 81.94V160h48V81.94A47.99 47.99 0 00433.94 48L400 14.06A47.95 47.95 0 00366.1 0h-255C85.49 0 64.01 21.48 64 47.98l.002 82.28c-.002 0 .002 0 0 0L64 160h48.01l-.91-112zM440 192H72c-39.7 0-72 32.3-72 72v112c0 13.25 10.75 24 24 24h56v80c0 17.67 14.33 32 32 32h288c17.67 0 32-14.33 32-32v-80h56c13.25 0 24-10.75 24-24V264c0-39.7-32.3-72-72-72zm-56 272H128v-96h256v96zm80-112h-32c0-17.67-14.33-32-32-32H112c-17.67 0-32 14.33-32 32H48v-88c0-13.23 10.77-24 24-24h368c13.23 0 24 10.77 24 24v88z"/></svg><svg viewBox="0 0 320 512" id="question" xmlns="http://www.w3.org/2000/svg"><path d="M144 416c-17.67 0-32 14.33-32 32s14.33 32.01 32 32.01 32-14.34 32-32.01-14.3-32-32-32zm67.2-384H104C46.66 32 0 78.66 0 136v16c0 13.3 10.75 24 24 24s24-10.7 24-24v-16c0-30.88 25.12-56 56-56h107.2c33.5 0 60.8 27.3 60.8 60.8 0 22.66-12.44 43.27-32.5 53.81L167 232.8c-29.9 15.2-47 45.1-47 77.8V328c0 13.25 10.75 24.01 24 24.01s24-10.71 24-24.01v-17.4c0-14.89 8.188-28.47 21.38-35.41l72.47-38.14C297.7 218.2 320 181.3 320 140.8 320 80.81 271.2 32 211.2 32z"/></svg><svg viewBox="0 0 512 512" id="reply" xmlns="http://www.w3.org/2000/svg"><path d="M512 336v119.1c0 14.2-10.7 24.9-24 24.9s-24-10.75-24-23.1V337.8c0-57.34-46.66-103.1-104-103.1H88.51l127.2 109.8c10.03 8.656 11.12 23.81 2.469 33.84C213.4 381.2 206.7 384 200 384c-5.562 0-11.16-1.909-15.69-5.847l-176-151.1C3.029 221.6 0 214.1 0 208c0-7 3.029-13.6 8.31-18.1l176-151.1c9.1-8.718 25.16-7.575 33.85 2.487 8.656 10.03 7.562 25.19-2.469 33.84L88.51 184H360c83.8 0 152 68.2 152 152z"/></svg><svg viewBox="0 0 448 512" id="right" xmlns="http://www.w3.org/2000/svg"><path d="M227.8 66.44C215.8 71.39 208 83.06 208 96v80H48c-26.51 0-48 21.5-48 48v64c0 26.51 21.49 48 48 48h160v80a32 32 0 0054.63 22.622l176-160C444.9 272.4 448 264.2 448 256s-3.125-16.38-9.375-22.62l-176-160c-9.125-9.16-22.925-11.9-34.825-6.94zM393.4 256L256 377.4V288H48v-64h208v-89.4L393.4 256z"/></svg><svg viewBox="0 0 512 512" id="share" xmlns="http://www.w3.org/2000/svg"><path d="M152 184h271.5L296.3 74.2c-10.03-8.656-11.12-23.81-2.469-33.84 8.688-10.06 23.85-11.21 33.85-2.487l176 151.1C508.1 194.4 512 201 512 208c0 6.968-3.029 13.58-8.31 18.14l-176 151.1c-4.531 3.937-10.13 5.847-15.69 5.847-6.719 0-13.41-2.812-18.16-8.312-8.656-10.03-7.562-25.19 2.469-33.84l127.2-109.8H152c-57.34 0-104 46.65-104 103.1v119.1C48 469.3 37.25 480 24 480S0 469.3 0 456V336.9C0 252.2 68.19 184 152 184z"/></svg><svg viewBox="0 0 512 512" id="shuffle" xmlns="http://www.w3.org/2000/svg"><path d="M424.1 287c-9.375-9.375-24.56-9.344-33.94.031s-9.375 24.56 0 33.94L430.1 360H332l-58.01-77.34-29.1 39.99 56.82 75.75c3.59 6 10.69 9.6 18.29 9.6h110.1l-39.03 39.03c-9.375 9.375-9.375 24.56 0 33.94C395.7 485.7 401.8 488 408 488s12.27-2.375 16.96-7.062l79.1-79.98c9.375-9.375 9.375-24.6 0-33.97L424.1 287zM24 152h92l58.01 77.34 29.1-39.99-55.91-75.75c-4.5-6-11.6-9.6-19.2-9.6H24c-13.25 0-24 10.8-24 24s10.75 24 24 24zm406.1 0l-39.03 39.03c-9.375 9.375-9.375 24.56 0 33.94C395.7 229.7 401.8 232 408 232s12.28-2.312 16.97-7l79.1-79.98c9.375-9.375 9.374-24.6-.001-33.97l-79.1-79.98c-9.375-9.375-24.56-9.406-33.93-.031s-9.375 24.56 0 33.94L430.1 104H320a23.993 23.993 0 00-19.19 9.594L116 360H24c-13.25 0-24 10.8-24 24s10.75 24 24 24h104c7.562 0 14.66-3.562 19.19-9.594L332 152h98.1z"/></svg><svg viewBox="0 0 320 512" id="sort" xmlns="http://www.w3.org/2000/svg"><path d="M271.1 288H48.15c-42.62 0-64.24 51.76-33.87 81.9l111.9 112c18.62 18.75 49.12 18.75 67.86 0l111.1-112c29.96-30.1 9.56-81.9-34.04-81.9zM160 448L48.9 336H272L160 448zM48.02 223.1h223.8c42.62 0 64.24-51.76 33.87-81.9L193.9 30.07c-18.62-18.75-49.12-18.75-67.86 0l-111.1 112c-30.9 30.13-9.659 81.03 33.08 81.03zM160 63.97l111.1 112H48.02L160 63.97z"/></svg><svg viewBox="0 0 320 512" id="sort-down" xmlns="http://www.w3.org/2000/svg"><path d="M271.1 288H48.08c-42.63 0-64.25 51.77-33.88 81.9l111.9 112c18.63 18.76 49.13 18.76 67.88 0l112-112c29.12-30.1 8.72-81.9-34.88-81.9zm-112 160l-112-112h224l-112 112z"/></svg><svg viewBox="0 0 320 512" id="sort-up" xmlns="http://www.w3.org/2000/svg"><path d="M48.03 224h223.9c42.63 0 64.25-51.77 33.88-81.9l-111.9-112c-18.63-18.76-49.13-18.76-67.88 0l-112 112c-30 30.1-8.748 81.9 34 81.9zM160 63.98l112 112H48.03L160 63.98z"/></svg><svg viewBox="0 0 576 512" id="star" xmlns="http://www.w3.org/2000/svg"><path d="M528.5 171.5l-146.4-21.29-65.43-132.4C310.9 5.971 299.4-.002 287.1 0c-10.5 0-22 5.899-27.8 17.8l-65.5 132.4-146.33 21.3c-26.27 3.8-36.79 36.1-17.75 54.6l105.9 102.1-25.02 146.4c-3.6 20.7 13 37.4 31.6 37.4 4.932 0 10.01-1.172 14.88-3.75L288 439.6l130.9 68.7c4.865 2.553 9.926 3.713 14.85 3.713 18.61 0 35.21-16.61 31.65-37.41l-25.05-145.5 105.9-102.1C565.3 207.6 554.8 175.3 528.5 171.5zM390.2 320.6l22.4 130.1-117.2-61.48a16.007 16.007 0 00-14.87 0L163.4 450.7l22.4-130.1c.9-5.2-1.7-10.5-4.6-14.2l-94.7-92.09 130.9-19.04c5.2-.77 9.7-4.07 12-8.77L288 67.99l58.59 118.5a16 16 0 0012.04 8.744l130.9 19.04-94.7 92.09C391 310.1 389.3 315.4 390.2 320.6z"/></svg><svg viewBox="0 0 576 512" id="star-sharp" xmlns="http://www.w3.org/2000/svg"><path d="M537.8 181.6H360.2L305.31 12.5C302.6 4.19 295.3 0 288 0s-14.6 4.19-17.3 12.57L215.8 181.6H38.21c-17.6 0-24.92 22.54-10.68 32.9L171.23 319 116.3 488.1c-4.1 12.8 6 23.9 17.4 23.9 3.553 0 7.227-1.09 10.62-3.556L288 403.1l143.7 104.5c3.4 3.3 7.1 4.4 10.6 4.4 11.36 0 21.49-11.13 17.35-23.89l-54.89-169.1 143.7-104.5c14.24-10.31 6.94-32.91-10.66-32.91zM351.9 311.8l33.72 103.9-88.25-64.18a15.999 15.999 0 00-18.82 0L190.3 415.6l33.72-103.9a15.997 15.997 0 00-5.808-17.88L129.9 229.6h109.2c6.933 0 13.08-4.465 15.22-11.06L288 114.8l33.7 103.8a16.002 16.002 0 0015.22 11.06h109.2l-88.34 64.24c-5.58 3.2-7.98 11.3-5.88 17.9z"/></svg><svg viewBox="0 0 448 512" id="tag" xmlns="http://www.w3.org/2000/svg"><path d="M426.3 211.9L268.1 53.7C255.5 41.11 233.5 32 215.8 32H48.98C21.96 32-.025 53.99-.025 81.01v166.8c0 17.75 9.11 39.75 21.67 52.32l158.2 158.3C194.3 472.8 213.2 480 232.2 480c18.95 0 37.91-7.204 52.33-21.63l141.8-141.8c28.87-28.87 28.87-75.77-.03-104.67zm-33.9 70.7L250.6 424.4c-10.13 10.16-26.66 10.14-36.78.016L55.59 266.2c-3.56-3.6-7.61-13.3-7.61-18.4V81.01l1-1h166.8c5.032 0 14.81 4.047 18.38 7.61l158.2 158.2c10.14 9.28 10.14 26.68.04 36.78zM135.1 144c0 13.26-10.75 24-24 24s-23.11-10.7-23.11-24 10.75-24 24-24 23.11 10.7 23.11 24z"/></svg><svg viewBox="0 0 576 512" id="tags" xmlns="http://www.w3.org/2000/svg"><path d="M458.4 211.9L300.2 53.7C287.6 41.11 265.6 32 247.8 32H81.01C53.99 32 32 53.99 32 81.01v166.8c0 17.75 9.11 39.75 21.67 52.32l158.2 158.3C226.3 472.8 245.3 480 264.2 480s37.91-7.204 52.33-21.63l141.8-141.8c28.87-28.87 28.87-75.77.07-104.67zm-34 70.7L282.6 424.4c-10.13 10.16-26.66 10.14-36.79.016L87.62 266.2c-3.563-3.563-7.61-13.35-7.61-18.38V81.01l1-1h166.8c5.032 0 14.81 4.047 18.38 7.61l158.2 158.2c10.21 9.28 10.21 26.68.01 36.78zM168 144c0 13.26-10.75 24-24 24s-24-10.7-24-24 10.75-24 24-24 24 10.7 24 24zm368.5 26.7L400.8 38.8c-9.453-9.219-24.67-9-33.94.5-9.234 9.5-9.016 24.69.5 33.94l135.5 131.7c16.28 16.25 25.23 37.88 25.23 60.88s-8.969 44.63-25.3 60.95l-111.7 112.4c-9.344 9.406-9.312 24.59.094 33.94C395.8 477.7 401.9 480 408 480c6.172 0 12.33-2.359 17.02-7.078l111.7-112.3c25.34-25.34 39.31-59.03 39.31-94.86S562.1 196.2 536.5 170.7z"/></svg><svg viewBox="0 0 576 512" id="toggle-off" xmlns="http://www.w3.org/2000/svg"><path d="M384 64H192C85.96 64 0 149.1 0 256s85.96 192 192 192h192c106 0 192-85.96 192-192S490 64 384 64zm0 336H192c-79.4 0-144-64.6-144-144s64.6-144 144-144h192c79.4 0 144 64.6 144 144s-64.6 144-144 144zM192 160c-53.9 0-96 42.1-96 96s42.98 96 96 96 96-42.98 96-96-43-96-96-96zm0 144c-26.5 0-48-21.5-48-48s21.5-48 48-48 48 21.5 48 48-21.5 48-48 48z"/></svg><svg viewBox="0 0 576 512" id="toggle-on" xmlns="http://www.w3.org/2000/svg"><path d="M384 64H192C86 64 0 149.96 0 255.1s85.96 192 192 192h192c106 0 192-85.96 192-192S490 64 384 64zm0 336H192c-79.4 0-144-64.6-144-144s64.6-144 144-144h192c79.4 0 144 64.6 144 144s-64.6 144-144 144zm0-240c-53.02 0-96 42.98-96 96s42.98 96 96 96 96-42.98 96-96-43-96-96-96z"/></svg><svg viewBox="0 0 448 512" id="trash" xmlns="http://www.w3.org/2000/svg"><path d="M424 80h-74.38l-34-56.75C306.9 8.875 291.3 0 274.4 0H173.6c-16.88 0-32.5 8.875-41.25 23.25L98.38 80H23.1C10.75 80 0 90.75 0 103.1S10.75 128 23.1 128H32l21.21 339c1.5 25.25 22.52 45 47.9 45h245.8c25.38 0 46.4-19.75 47.9-45L416 128h8c13.3 0 24-10.7 24-24s-10.7-24-24-24zM173.6 48h100.8l19.25 32H154.4l19.2-32zm173.3 416H101.1L80.13 128h287.8L346.9 464z"/></svg><svg viewBox="0 0 512 512" id="triangle-exclamation" xmlns="http://www.w3.org/2000/svg"><path d="M506.3 417L293 53c-8.2-14-22.6-21-37-21-14.4 0-28.8 7-37.9 21L4.9 417c-15.49 27.9 4.951 63 37.84 63h426.6c32.76 0 53.26-35 36.96-63zM52.58 432L255.1 84.8 459.4 432H52.58zM256 337.1c-17.36 0-31.44 14.08-31.44 31.44s14.11 31.44 31.48 31.44 31.4-14.08 31.4-31.44C287.4 351.2 273.4 337.1 256 337.1zM232 184v96c0 13.3 10.8 24 24 24s24-10.75 24-24v-96c0-13.2-10.7-24-24-24s-24 10.8-24 24z"/></svg><svg viewBox="0 0 448 512" id="unlock" xmlns="http://www.w3.org/2000/svg"><path d="M384 192H144v-64c0-44.11 35.89-80 80-80 34.84 0 65.44 22.25 76.14 55.38C304.2 116 317.7 122.9 330.4 118.8c12.61-4.078 19.53-17.61 15.47-30.22C328.7 35.61 279.7 0 224 0 153.4 0 96 57.42 96 128v64H64c-35.35 0-64 28.7-64 64v192c0 35.3 28.65 64 64 64h320c35.35 0 64-28.65 64-63.1V256c0-35.3-28.7-64-64-64zm16 256c0 8.822-7.178 16-16 16H64c-8.822 0-16-7.178-16-16V256c0-8.822 7.178-16 16-16h320c8.822 0 16 7.178 16 16v192z"/></svg><svg viewBox="0 0 384 512" id="up" xmlns="http://www.w3.org/2000/svg"><path d="M2.438 252.3C7.391 264.2 19.06 272 32 272h80v160c0 26.51 21.49 48 48 48h64c26.5 0 48-21.5 48-48V272h80a32 32 0 0022.622-54.63l-160-176C208.4 35.13 200.2 32 192 32s-16.4 3.13-22.6 9.38l-160 176C.219 226.5-2.516 240.3 2.438 252.3zM192 86.63L313.4 224H224v208h-64V224H70.63L192 86.63z"/></svg><svg viewBox="0 0 512 512" id="upload" xmlns="http://www.w3.org/2000/svg"><path d="M448 304H320v48h128c8.822 0 16 7.178 16 16v80c0 8.822-7.178 16-16 16H64c-8.822 0-16-7.178-16-16v-80c0-8.8 7.18-16 16-16h128v-48H64c-35.35 0-64 28.65-64 64v80c0 35.35 28.65 64 64 64h384c35.35 0 64-28.65 64-64v-80c0-35.3-28.7-64-64-64zM136.1 176.1L232 81.94V352c0 13.25 10.75 24 24 24s24-10.75 24-24V81.94l95.03 95.03C379.7 181.7 385.8 184 392 184s12.28-2.344 16.97-7.031c9.375-9.375 9.375-24.56 0-33.94l-136-136c-9.375-9.375-24.56-9.375-33.94 0l-136 136c-9.375 9.375-9.375 24.56 0 33.94s24.57 9.331 33.07-.869zM432 408c0-13.26-10.75-24-24-24s-24 10.7-24 24c0 13.25 10.75 24 24 24s24-10.7 24-24z"/></svg><svg viewBox="0 0 448 512" id="user" xmlns="http://www.w3.org/2000/svg"><path d="M272 304h-96C78.8 304 0 382.8 0 480c0 17.67 14.33 32 32 32h384c17.67 0 32-14.33 32-32 0-97.2-78.8-176-176-176zM48.99 464c7.9-63.1 61.81-112 127.01-112h96c65.16 0 119.1 48.95 127 112H48.99zM224 256c70.69 0 128-57.31 128-128S294.69 0 224 0 96 57.31 96 128c0 70.7 57.3 128 128 128zm0-208c44.11 0 80 35.89 80 80s-35.89 80-80 80-80-35.9-80-80c0-44.11 35.9-80 80-80z"/></svg><svg viewBox="0 0 320 512" id="xmark" xmlns="http://www.w3.org/2000/svg"><path d="M312.1 375c9.369 9.369 9.369 24.57 0 33.94s-24.57 9.369-33.94 0L160 289.9l-119 119c-9.369 9.369-24.57 9.369-33.94 0s-9.369-24.57 0-33.94L126.1 256 7.027 136.1c-9.369-9.369-9.369-24.57 0-33.94s24.57-9.369 33.94 0L160 222.1l119-119c9.369-9.369 24.57-9.369 33.94 0s9.369 24.57 0 33.94L193.9 256l118.2 119z"/></svg></svg>